M48
; DRILL file {KiCad 8.0.7} date 2024-12-24T16:41:41+0100
; FORMAT={-:-/ absolute / inch / decimal}
; #@! TF.CreationDate,2024-12-24T16:41:41+01:00
; #@! TF.GenerationSoftware,Kicad,Pcbnew,8.0.7
; #@! TF.FileFunction,Plated,1,4,PTH
FMAT,2
INCH
; #@! TA.AperFunction,Plated,PTH,ViaDrill
T1C0.0079
; #@! TA.AperFunction,Plated,PTH,ViaDrill
T2C0.0118
; #@! TA.AperFunction,Plated,PTH,ViaDrill
T3C0.0157
; #@! TA.AperFunction,Plated,PTH,ComponentDrill
T4C0.0236
; #@! TA.AperFunction,Plated,PTH,ComponentDrill
T5C0.0394
%
G90
G05
T1
X5.082Y-3.242
X5.152Y-3.902
X5.156Y-3.754
X5.212Y-3.904
X5.304Y-3.6596
X5.3583Y-3.6496
X5.362Y-3.242
X5.362Y-3.49
X5.374Y-3.1024
X5.382Y-3.59
X5.4054Y-3.028
X5.4429Y-3.748
X5.4528Y-3.5079
X5.4528Y-3.5748
X5.466Y-3.06
X5.502Y-3.75
X5.518Y-3.088
X5.5315Y-3.2402
X5.542Y-3.488
X5.5472Y-3.6496
X5.566Y-3.294
X5.58Y-3.652
X5.582Y-3.366
X5.594Y-2.55
X5.594Y-3.08
X5.652Y-3.596
X5.69Y-3.238
X5.692Y-3.114
X5.692Y-3.176
X5.72Y-2.792
X5.72Y-3.862
T2
X5.3619Y-2.85
X5.4073Y-2.85
T3
X5.082Y-2.91
X5.082Y-3.046
X5.114Y-3.372
X5.138Y-3.516
X5.204Y-3.376
X5.2047Y-3.282
X5.242Y-3.062
X5.246Y-2.892
X5.254Y-3.412
X5.254Y-3.456
X5.312Y-3.114
X5.4528Y-3.1649
T5
X5.2846Y-2.75
X5.33Y-2.5
X5.33Y-2.6
X5.3846Y-2.75
X5.43Y-2.5
X5.43Y-2.6
X5.4846Y-2.75
X5.53Y-2.5
X5.53Y-2.6
X5.5846Y-2.75
T4
G00X5.2827Y-3.6917
M15
G01X5.2827Y-3.735
M16
G05
G00X5.2827Y-3.8622
M15
G01X5.2827Y-3.8937
M16
G05
G00X5.6228Y-3.6917
M15
G01X5.6228Y-3.735
M16
G05
G00X5.6228Y-3.8622
M15
G01X5.6228Y-3.8937
M16
G05
M30
