%TF.GenerationSoftware,KiCad,Pcbnew,8.0.7*%
%TF.CreationDate,2024-12-24T16:41:42+01:00*%
%TF.ProjectId,USB2UART_PROG,55534232-5541-4525-945f-50524f472e6b,rev?*%
%TF.SameCoordinates,Original*%
%TF.FileFunction,Drillmap*%
%TF.FilePolarity,Positive*%
%FSLAX45Y45*%
G04 Gerber Fmt 4.5, Leading zero omitted, Abs format (unit mm)*
G04 Created by KiCad (PCBNEW 8.0.7) date 2024-12-24 16:41:42*
%MOMM*%
%LPD*%
G01*
G04 APERTURE LIST*
%ADD10C,0.050000*%
%ADD11C,0.200000*%
%ADD12C,0.100000*%
G04 APERTURE END LIST*
D10*
X14400000Y-10100000D02*
X13100000Y-10100000D01*
X14700000Y-6400000D02*
X14700000Y-9800000D01*
X14400000Y-6100000D02*
G75*
G02*
X14700000Y-6400000I0J-300000D01*
G01*
X13100000Y-10100000D02*
G75*
G02*
X12800000Y-9800000I0J300000D01*
G01*
X14700000Y-9800000D02*
G75*
G02*
X14400000Y-10100000I-300000J0D01*
G01*
X13100000Y-6100000D02*
X14400000Y-6100000D01*
X12800000Y-6400000D02*
G75*
G02*
X13100000Y-6100000I300000J0D01*
G01*
X12800000Y-9800000D02*
X12800000Y-6400000D01*
D11*
D12*
X12898280Y-8224680D02*
X12918280Y-8244680D01*
X12918280Y-8224680D02*
X12898280Y-8244680D01*
X13076080Y-9901080D02*
X13096080Y-9921080D01*
X13096080Y-9901080D02*
X13076080Y-9921080D01*
X13086240Y-9525160D02*
X13106240Y-9545160D01*
X13106240Y-9525160D02*
X13086240Y-9545160D01*
X13228480Y-9906160D02*
X13248480Y-9926160D01*
X13248480Y-9906160D02*
X13228480Y-9926160D01*
X13462160Y-9285280D02*
X13482160Y-9305280D01*
X13482160Y-9285280D02*
X13462160Y-9305280D01*
X13600000Y-9260000D02*
X13620000Y-9280000D01*
X13620000Y-9260000D02*
X13600000Y-9280000D01*
X13609480Y-8224680D02*
X13629480Y-8244680D01*
X13629480Y-8224680D02*
X13609480Y-8244680D01*
X13609480Y-8854600D02*
X13629480Y-8874600D01*
X13629480Y-8854600D02*
X13609480Y-8874600D01*
X13640000Y-7870000D02*
X13660000Y-7890000D01*
X13660000Y-7870000D02*
X13640000Y-7890000D01*
X13660280Y-9108600D02*
X13680280Y-9128600D01*
X13680280Y-9108600D02*
X13660280Y-9128600D01*
X13719650Y-7681120D02*
X13739650Y-7701120D01*
X13739650Y-7681120D02*
X13719650Y-7701120D01*
X13815000Y-9510000D02*
X13835000Y-9530000D01*
X13835000Y-9510000D02*
X13815000Y-9530000D01*
X13840000Y-8900000D02*
X13860000Y-8920000D01*
X13860000Y-8900000D02*
X13840000Y-8920000D01*
X13840000Y-9070000D02*
X13860000Y-9090000D01*
X13860000Y-9070000D02*
X13840000Y-9090000D01*
X13873640Y-7762400D02*
X13893640Y-7782400D01*
X13893640Y-7762400D02*
X13873640Y-7782400D01*
X13965000Y-9515000D02*
X13985000Y-9535000D01*
X13985000Y-9515000D02*
X13965000Y-9535000D01*
X14005720Y-7833520D02*
X14025720Y-7853520D01*
X14025720Y-7833520D02*
X14005720Y-7853520D01*
X14040000Y-8220000D02*
X14060000Y-8240000D01*
X14060000Y-8220000D02*
X14040000Y-8240000D01*
X14066680Y-8849520D02*
X14086680Y-8869520D01*
X14086680Y-8849520D02*
X14066680Y-8869520D01*
X14080000Y-9260000D02*
X14100000Y-9280000D01*
X14100000Y-9260000D02*
X14080000Y-9280000D01*
X14127640Y-8356760D02*
X14147640Y-8376760D01*
X14147640Y-8356760D02*
X14127640Y-8376760D01*
X14163200Y-9266080D02*
X14183200Y-9286080D01*
X14183200Y-9266080D02*
X14163200Y-9286080D01*
X14168280Y-8539640D02*
X14188280Y-8559640D01*
X14188280Y-8539640D02*
X14168280Y-8559640D01*
X14198760Y-6467000D02*
X14218760Y-6487000D01*
X14218760Y-6467000D02*
X14198760Y-6487000D01*
X14198760Y-7813200D02*
X14218760Y-7833200D01*
X14218760Y-7813200D02*
X14198760Y-7833200D01*
X14346080Y-9123840D02*
X14366080Y-9143840D01*
X14366080Y-9123840D02*
X14346080Y-9143840D01*
X14442600Y-8214520D02*
X14462600Y-8234520D01*
X14462600Y-8214520D02*
X14442600Y-8234520D01*
X14447680Y-7899560D02*
X14467680Y-7919560D01*
X14467680Y-7899560D02*
X14447680Y-7919560D01*
X14447680Y-8057040D02*
X14467680Y-8077040D01*
X14467680Y-8057040D02*
X14447680Y-8077040D01*
X14518800Y-7081680D02*
X14538800Y-7101680D01*
X14538800Y-7081680D02*
X14518800Y-7101680D01*
X14518800Y-9799480D02*
X14538800Y-9819480D01*
X14538800Y-9799480D02*
X14518800Y-9819480D01*
X13634150Y-7239000D02*
G75*
G02*
X13604150Y-7239000I-15000J0D01*
G01*
X13604150Y-7239000D02*
G75*
G02*
X13634150Y-7239000I15000J0D01*
G01*
X13749650Y-7239000D02*
G75*
G02*
X13719650Y-7239000I-15000J0D01*
G01*
X13719650Y-7239000D02*
G75*
G02*
X13749650Y-7239000I15000J0D01*
G01*
X12908280Y-7371400D02*
X12908280Y-7411400D01*
X12888280Y-7391400D02*
X12928280Y-7391400D01*
X12908280Y-7716840D02*
X12908280Y-7756840D01*
X12888280Y-7736840D02*
X12928280Y-7736840D01*
X12989560Y-8544880D02*
X12989560Y-8584880D01*
X12969560Y-8564880D02*
X13009560Y-8564880D01*
X13050520Y-8910640D02*
X13050520Y-8950640D01*
X13030520Y-8930640D02*
X13070520Y-8930640D01*
X13218160Y-8555040D02*
X13218160Y-8595040D01*
X13198160Y-8575040D02*
X13238160Y-8575040D01*
X13220000Y-8316280D02*
X13220000Y-8356280D01*
X13200000Y-8336280D02*
X13240000Y-8336280D01*
X13314680Y-7757480D02*
X13314680Y-7797480D01*
X13294680Y-7777480D02*
X13334680Y-7777480D01*
X13324840Y-7325680D02*
X13324840Y-7365680D01*
X13304840Y-7345680D02*
X13344840Y-7345680D01*
X13345160Y-8646480D02*
X13345160Y-8686480D01*
X13325160Y-8666480D02*
X13365160Y-8666480D01*
X13345160Y-8758240D02*
X13345160Y-8798240D01*
X13325160Y-8778240D02*
X13365160Y-8778240D01*
X13492480Y-7889560D02*
X13492480Y-7929560D01*
X13472480Y-7909560D02*
X13512480Y-7909560D01*
X13850000Y-8018750D02*
X13850000Y-8058750D01*
X13830000Y-8038750D02*
X13870000Y-8038750D01*
X13439213Y-9453213D02*
X13439213Y-9410787D01*
X13396787Y-9410787D01*
X13396787Y-9453213D01*
X13439213Y-9453213D01*
X13388000Y-9377000D02*
X13388000Y-9487000D01*
X13448000Y-9487000D02*
G75*
G02*
X13388000Y-9487000I-30000J0D01*
G01*
X13448000Y-9487000D02*
X13448000Y-9377000D01*
X13448000Y-9377000D02*
G75*
G03*
X13388000Y-9377000I-30000J0D01*
G01*
X13439213Y-9871213D02*
X13439213Y-9828787D01*
X13396787Y-9828787D01*
X13396787Y-9871213D01*
X13439213Y-9871213D01*
X13388000Y-9810000D02*
X13388000Y-9890000D01*
X13448000Y-9890000D02*
G75*
G02*
X13388000Y-9890000I-30000J0D01*
G01*
X13448000Y-9890000D02*
X13448000Y-9810000D01*
X13448000Y-9810000D02*
G75*
G03*
X13388000Y-9810000I-30000J0D01*
G01*
X14303213Y-9453213D02*
X14303213Y-9410787D01*
X14260787Y-9410787D01*
X14260787Y-9453213D01*
X14303213Y-9453213D01*
X14252000Y-9377000D02*
X14252000Y-9487000D01*
X14312000Y-9487000D02*
G75*
G02*
X14252000Y-9487000I-30000J0D01*
G01*
X14312000Y-9487000D02*
X14312000Y-9377000D01*
X14312000Y-9377000D02*
G75*
G03*
X14252000Y-9377000I-30000J0D01*
G01*
X14303213Y-9871213D02*
X14303213Y-9828787D01*
X14260787Y-9828787D01*
X14260787Y-9871213D01*
X14303213Y-9871213D01*
X14252000Y-9810000D02*
X14252000Y-9890000D01*
X14312000Y-9890000D02*
G75*
G02*
X14252000Y-9890000I-30000J0D01*
G01*
X14312000Y-9890000D02*
X14312000Y-9810000D01*
X14312000Y-9810000D02*
G75*
G03*
X14252000Y-9810000I-30000J0D01*
G01*
X13422900Y-7035000D02*
X13472900Y-6985000D01*
X13422900Y-6935000D01*
X13372900Y-6985000D01*
X13422900Y-7035000D01*
X13538200Y-6400000D02*
X13588200Y-6350000D01*
X13538200Y-6300000D01*
X13488200Y-6350000D01*
X13538200Y-6400000D01*
X13538200Y-6654000D02*
X13588200Y-6604000D01*
X13538200Y-6554000D01*
X13488200Y-6604000D01*
X13538200Y-6654000D01*
X13676900Y-7035000D02*
X13726900Y-6985000D01*
X13676900Y-6935000D01*
X13626900Y-6985000D01*
X13676900Y-7035000D01*
X13792200Y-6400000D02*
X13842200Y-6350000D01*
X13792200Y-6300000D01*
X13742200Y-6350000D01*
X13792200Y-6400000D01*
X13792200Y-6654000D02*
X13842200Y-6604000D01*
X13792200Y-6554000D01*
X13742200Y-6604000D01*
X13792200Y-6654000D01*
X13930900Y-7035000D02*
X13980900Y-6985000D01*
X13930900Y-6935000D01*
X13880900Y-6985000D01*
X13930900Y-7035000D01*
X14046200Y-6400000D02*
X14096200Y-6350000D01*
X14046200Y-6300000D01*
X13996200Y-6350000D01*
X14046200Y-6400000D01*
X14046200Y-6654000D02*
X14096200Y-6604000D01*
X14046200Y-6554000D01*
X13996200Y-6604000D01*
X14046200Y-6654000D01*
X14184900Y-7035000D02*
X14234900Y-6985000D01*
X14184900Y-6935000D01*
X14134900Y-6985000D01*
X14184900Y-7035000D01*
D11*
X13058277Y-10413984D02*
X13058277Y-10213984D01*
X13058277Y-10213984D02*
X13105896Y-10213984D01*
X13105896Y-10213984D02*
X13134467Y-10223508D01*
X13134467Y-10223508D02*
X13153515Y-10242555D01*
X13153515Y-10242555D02*
X13163039Y-10261603D01*
X13163039Y-10261603D02*
X13172562Y-10299698D01*
X13172562Y-10299698D02*
X13172562Y-10328270D01*
X13172562Y-10328270D02*
X13163039Y-10366365D01*
X13163039Y-10366365D02*
X13153515Y-10385412D01*
X13153515Y-10385412D02*
X13134467Y-10404460D01*
X13134467Y-10404460D02*
X13105896Y-10413984D01*
X13105896Y-10413984D02*
X13058277Y-10413984D01*
X13258277Y-10413984D02*
X13258277Y-10280650D01*
X13258277Y-10318746D02*
X13267801Y-10299698D01*
X13267801Y-10299698D02*
X13277324Y-10290174D01*
X13277324Y-10290174D02*
X13296372Y-10280650D01*
X13296372Y-10280650D02*
X13315420Y-10280650D01*
X13382086Y-10413984D02*
X13382086Y-10280650D01*
X13382086Y-10213984D02*
X13372562Y-10223508D01*
X13372562Y-10223508D02*
X13382086Y-10233031D01*
X13382086Y-10233031D02*
X13391610Y-10223508D01*
X13391610Y-10223508D02*
X13382086Y-10213984D01*
X13382086Y-10213984D02*
X13382086Y-10233031D01*
X13505896Y-10413984D02*
X13486848Y-10404460D01*
X13486848Y-10404460D02*
X13477324Y-10385412D01*
X13477324Y-10385412D02*
X13477324Y-10213984D01*
X13610658Y-10413984D02*
X13591610Y-10404460D01*
X13591610Y-10404460D02*
X13582086Y-10385412D01*
X13582086Y-10385412D02*
X13582086Y-10213984D01*
X13839229Y-10413984D02*
X13839229Y-10213984D01*
X13839229Y-10213984D02*
X13905896Y-10356841D01*
X13905896Y-10356841D02*
X13972562Y-10213984D01*
X13972562Y-10213984D02*
X13972562Y-10413984D01*
X14153515Y-10413984D02*
X14153515Y-10309222D01*
X14153515Y-10309222D02*
X14143991Y-10290174D01*
X14143991Y-10290174D02*
X14124943Y-10280650D01*
X14124943Y-10280650D02*
X14086848Y-10280650D01*
X14086848Y-10280650D02*
X14067801Y-10290174D01*
X14153515Y-10404460D02*
X14134467Y-10413984D01*
X14134467Y-10413984D02*
X14086848Y-10413984D01*
X14086848Y-10413984D02*
X14067801Y-10404460D01*
X14067801Y-10404460D02*
X14058277Y-10385412D01*
X14058277Y-10385412D02*
X14058277Y-10366365D01*
X14058277Y-10366365D02*
X14067801Y-10347317D01*
X14067801Y-10347317D02*
X14086848Y-10337793D01*
X14086848Y-10337793D02*
X14134467Y-10337793D01*
X14134467Y-10337793D02*
X14153515Y-10328270D01*
X14248753Y-10280650D02*
X14248753Y-10480650D01*
X14248753Y-10290174D02*
X14267801Y-10280650D01*
X14267801Y-10280650D02*
X14305896Y-10280650D01*
X14305896Y-10280650D02*
X14324943Y-10290174D01*
X14324943Y-10290174D02*
X14334467Y-10299698D01*
X14334467Y-10299698D02*
X14343991Y-10318746D01*
X14343991Y-10318746D02*
X14343991Y-10375889D01*
X14343991Y-10375889D02*
X14334467Y-10394936D01*
X14334467Y-10394936D02*
X14324943Y-10404460D01*
X14324943Y-10404460D02*
X14305896Y-10413984D01*
X14305896Y-10413984D02*
X14267801Y-10413984D01*
X14267801Y-10413984D02*
X14248753Y-10404460D01*
X14429705Y-10394936D02*
X14439229Y-10404460D01*
X14439229Y-10404460D02*
X14429705Y-10413984D01*
X14429705Y-10413984D02*
X14420182Y-10404460D01*
X14420182Y-10404460D02*
X14429705Y-10394936D01*
X14429705Y-10394936D02*
X14429705Y-10413984D01*
X14429705Y-10290174D02*
X14439229Y-10299698D01*
X14439229Y-10299698D02*
X14429705Y-10309222D01*
X14429705Y-10309222D02*
X14420182Y-10299698D01*
X14420182Y-10299698D02*
X14429705Y-10290174D01*
X14429705Y-10290174D02*
X14429705Y-10309222D01*
D12*
X12777500Y-10732500D02*
X12797500Y-10752500D01*
X12797500Y-10732500D02*
X12777500Y-10752500D01*
D11*
X13096372Y-10633984D02*
X13115420Y-10633984D01*
X13115420Y-10633984D02*
X13134467Y-10643508D01*
X13134467Y-10643508D02*
X13143991Y-10653031D01*
X13143991Y-10653031D02*
X13153515Y-10672079D01*
X13153515Y-10672079D02*
X13163039Y-10710174D01*
X13163039Y-10710174D02*
X13163039Y-10757793D01*
X13163039Y-10757793D02*
X13153515Y-10795889D01*
X13153515Y-10795889D02*
X13143991Y-10814936D01*
X13143991Y-10814936D02*
X13134467Y-10824460D01*
X13134467Y-10824460D02*
X13115420Y-10833984D01*
X13115420Y-10833984D02*
X13096372Y-10833984D01*
X13096372Y-10833984D02*
X13077324Y-10824460D01*
X13077324Y-10824460D02*
X13067801Y-10814936D01*
X13067801Y-10814936D02*
X13058277Y-10795889D01*
X13058277Y-10795889D02*
X13048753Y-10757793D01*
X13048753Y-10757793D02*
X13048753Y-10710174D01*
X13048753Y-10710174D02*
X13058277Y-10672079D01*
X13058277Y-10672079D02*
X13067801Y-10653031D01*
X13067801Y-10653031D02*
X13077324Y-10643508D01*
X13077324Y-10643508D02*
X13096372Y-10633984D01*
X13248753Y-10814936D02*
X13258277Y-10824460D01*
X13258277Y-10824460D02*
X13248753Y-10833984D01*
X13248753Y-10833984D02*
X13239229Y-10824460D01*
X13239229Y-10824460D02*
X13248753Y-10814936D01*
X13248753Y-10814936D02*
X13248753Y-10833984D01*
X13334467Y-10653031D02*
X13343991Y-10643508D01*
X13343991Y-10643508D02*
X13363039Y-10633984D01*
X13363039Y-10633984D02*
X13410658Y-10633984D01*
X13410658Y-10633984D02*
X13429705Y-10643508D01*
X13429705Y-10643508D02*
X13439229Y-10653031D01*
X13439229Y-10653031D02*
X13448753Y-10672079D01*
X13448753Y-10672079D02*
X13448753Y-10691127D01*
X13448753Y-10691127D02*
X13439229Y-10719698D01*
X13439229Y-10719698D02*
X13324943Y-10833984D01*
X13324943Y-10833984D02*
X13448753Y-10833984D01*
X13572562Y-10633984D02*
X13591610Y-10633984D01*
X13591610Y-10633984D02*
X13610658Y-10643508D01*
X13610658Y-10643508D02*
X13620182Y-10653031D01*
X13620182Y-10653031D02*
X13629705Y-10672079D01*
X13629705Y-10672079D02*
X13639229Y-10710174D01*
X13639229Y-10710174D02*
X13639229Y-10757793D01*
X13639229Y-10757793D02*
X13629705Y-10795889D01*
X13629705Y-10795889D02*
X13620182Y-10814936D01*
X13620182Y-10814936D02*
X13610658Y-10824460D01*
X13610658Y-10824460D02*
X13591610Y-10833984D01*
X13591610Y-10833984D02*
X13572562Y-10833984D01*
X13572562Y-10833984D02*
X13553515Y-10824460D01*
X13553515Y-10824460D02*
X13543991Y-10814936D01*
X13543991Y-10814936D02*
X13534467Y-10795889D01*
X13534467Y-10795889D02*
X13524943Y-10757793D01*
X13524943Y-10757793D02*
X13524943Y-10710174D01*
X13524943Y-10710174D02*
X13534467Y-10672079D01*
X13534467Y-10672079D02*
X13543991Y-10653031D01*
X13543991Y-10653031D02*
X13553515Y-10643508D01*
X13553515Y-10643508D02*
X13572562Y-10633984D01*
X13763039Y-10633984D02*
X13782086Y-10633984D01*
X13782086Y-10633984D02*
X13801134Y-10643508D01*
X13801134Y-10643508D02*
X13810658Y-10653031D01*
X13810658Y-10653031D02*
X13820182Y-10672079D01*
X13820182Y-10672079D02*
X13829705Y-10710174D01*
X13829705Y-10710174D02*
X13829705Y-10757793D01*
X13829705Y-10757793D02*
X13820182Y-10795889D01*
X13820182Y-10795889D02*
X13810658Y-10814936D01*
X13810658Y-10814936D02*
X13801134Y-10824460D01*
X13801134Y-10824460D02*
X13782086Y-10833984D01*
X13782086Y-10833984D02*
X13763039Y-10833984D01*
X13763039Y-10833984D02*
X13743991Y-10824460D01*
X13743991Y-10824460D02*
X13734467Y-10814936D01*
X13734467Y-10814936D02*
X13724943Y-10795889D01*
X13724943Y-10795889D02*
X13715420Y-10757793D01*
X13715420Y-10757793D02*
X13715420Y-10710174D01*
X13715420Y-10710174D02*
X13724943Y-10672079D01*
X13724943Y-10672079D02*
X13734467Y-10653031D01*
X13734467Y-10653031D02*
X13743991Y-10643508D01*
X13743991Y-10643508D02*
X13763039Y-10633984D01*
X13915420Y-10833984D02*
X13915420Y-10700650D01*
X13915420Y-10719698D02*
X13924943Y-10710174D01*
X13924943Y-10710174D02*
X13943991Y-10700650D01*
X13943991Y-10700650D02*
X13972563Y-10700650D01*
X13972563Y-10700650D02*
X13991610Y-10710174D01*
X13991610Y-10710174D02*
X14001134Y-10729222D01*
X14001134Y-10729222D02*
X14001134Y-10833984D01*
X14001134Y-10729222D02*
X14010658Y-10710174D01*
X14010658Y-10710174D02*
X14029705Y-10700650D01*
X14029705Y-10700650D02*
X14058277Y-10700650D01*
X14058277Y-10700650D02*
X14077324Y-10710174D01*
X14077324Y-10710174D02*
X14086848Y-10729222D01*
X14086848Y-10729222D02*
X14086848Y-10833984D01*
X14182086Y-10833984D02*
X14182086Y-10700650D01*
X14182086Y-10719698D02*
X14191610Y-10710174D01*
X14191610Y-10710174D02*
X14210658Y-10700650D01*
X14210658Y-10700650D02*
X14239229Y-10700650D01*
X14239229Y-10700650D02*
X14258277Y-10710174D01*
X14258277Y-10710174D02*
X14267801Y-10729222D01*
X14267801Y-10729222D02*
X14267801Y-10833984D01*
X14267801Y-10729222D02*
X14277324Y-10710174D01*
X14277324Y-10710174D02*
X14296372Y-10700650D01*
X14296372Y-10700650D02*
X14324943Y-10700650D01*
X14324943Y-10700650D02*
X14343991Y-10710174D01*
X14343991Y-10710174D02*
X14353515Y-10729222D01*
X14353515Y-10729222D02*
X14353515Y-10833984D01*
X14743991Y-10624460D02*
X14572563Y-10881603D01*
X15001134Y-10633984D02*
X15020182Y-10633984D01*
X15020182Y-10633984D02*
X15039229Y-10643508D01*
X15039229Y-10643508D02*
X15048753Y-10653031D01*
X15048753Y-10653031D02*
X15058277Y-10672079D01*
X15058277Y-10672079D02*
X15067801Y-10710174D01*
X15067801Y-10710174D02*
X15067801Y-10757793D01*
X15067801Y-10757793D02*
X15058277Y-10795889D01*
X15058277Y-10795889D02*
X15048753Y-10814936D01*
X15048753Y-10814936D02*
X15039229Y-10824460D01*
X15039229Y-10824460D02*
X15020182Y-10833984D01*
X15020182Y-10833984D02*
X15001134Y-10833984D01*
X15001134Y-10833984D02*
X14982086Y-10824460D01*
X14982086Y-10824460D02*
X14972563Y-10814936D01*
X14972563Y-10814936D02*
X14963039Y-10795889D01*
X14963039Y-10795889D02*
X14953515Y-10757793D01*
X14953515Y-10757793D02*
X14953515Y-10710174D01*
X14953515Y-10710174D02*
X14963039Y-10672079D01*
X14963039Y-10672079D02*
X14972563Y-10653031D01*
X14972563Y-10653031D02*
X14982086Y-10643508D01*
X14982086Y-10643508D02*
X15001134Y-10633984D01*
X15153515Y-10814936D02*
X15163039Y-10824460D01*
X15163039Y-10824460D02*
X15153515Y-10833984D01*
X15153515Y-10833984D02*
X15143991Y-10824460D01*
X15143991Y-10824460D02*
X15153515Y-10814936D01*
X15153515Y-10814936D02*
X15153515Y-10833984D01*
X15286848Y-10633984D02*
X15305896Y-10633984D01*
X15305896Y-10633984D02*
X15324944Y-10643508D01*
X15324944Y-10643508D02*
X15334467Y-10653031D01*
X15334467Y-10653031D02*
X15343991Y-10672079D01*
X15343991Y-10672079D02*
X15353515Y-10710174D01*
X15353515Y-10710174D02*
X15353515Y-10757793D01*
X15353515Y-10757793D02*
X15343991Y-10795889D01*
X15343991Y-10795889D02*
X15334467Y-10814936D01*
X15334467Y-10814936D02*
X15324944Y-10824460D01*
X15324944Y-10824460D02*
X15305896Y-10833984D01*
X15305896Y-10833984D02*
X15286848Y-10833984D01*
X15286848Y-10833984D02*
X15267801Y-10824460D01*
X15267801Y-10824460D02*
X15258277Y-10814936D01*
X15258277Y-10814936D02*
X15248753Y-10795889D01*
X15248753Y-10795889D02*
X15239229Y-10757793D01*
X15239229Y-10757793D02*
X15239229Y-10710174D01*
X15239229Y-10710174D02*
X15248753Y-10672079D01*
X15248753Y-10672079D02*
X15258277Y-10653031D01*
X15258277Y-10653031D02*
X15267801Y-10643508D01*
X15267801Y-10643508D02*
X15286848Y-10633984D01*
X15477325Y-10633984D02*
X15496372Y-10633984D01*
X15496372Y-10633984D02*
X15515420Y-10643508D01*
X15515420Y-10643508D02*
X15524944Y-10653031D01*
X15524944Y-10653031D02*
X15534467Y-10672079D01*
X15534467Y-10672079D02*
X15543991Y-10710174D01*
X15543991Y-10710174D02*
X15543991Y-10757793D01*
X15543991Y-10757793D02*
X15534467Y-10795889D01*
X15534467Y-10795889D02*
X15524944Y-10814936D01*
X15524944Y-10814936D02*
X15515420Y-10824460D01*
X15515420Y-10824460D02*
X15496372Y-10833984D01*
X15496372Y-10833984D02*
X15477325Y-10833984D01*
X15477325Y-10833984D02*
X15458277Y-10824460D01*
X15458277Y-10824460D02*
X15448753Y-10814936D01*
X15448753Y-10814936D02*
X15439229Y-10795889D01*
X15439229Y-10795889D02*
X15429706Y-10757793D01*
X15429706Y-10757793D02*
X15429706Y-10710174D01*
X15429706Y-10710174D02*
X15439229Y-10672079D01*
X15439229Y-10672079D02*
X15448753Y-10653031D01*
X15448753Y-10653031D02*
X15458277Y-10643508D01*
X15458277Y-10643508D02*
X15477325Y-10633984D01*
X15610658Y-10633984D02*
X15743991Y-10633984D01*
X15743991Y-10633984D02*
X15658277Y-10833984D01*
X15829706Y-10833984D02*
X15867801Y-10833984D01*
X15867801Y-10833984D02*
X15886848Y-10824460D01*
X15886848Y-10824460D02*
X15896372Y-10814936D01*
X15896372Y-10814936D02*
X15915420Y-10786365D01*
X15915420Y-10786365D02*
X15924944Y-10748270D01*
X15924944Y-10748270D02*
X15924944Y-10672079D01*
X15924944Y-10672079D02*
X15915420Y-10653031D01*
X15915420Y-10653031D02*
X15905896Y-10643508D01*
X15905896Y-10643508D02*
X15886848Y-10633984D01*
X15886848Y-10633984D02*
X15848753Y-10633984D01*
X15848753Y-10633984D02*
X15829706Y-10643508D01*
X15829706Y-10643508D02*
X15820182Y-10653031D01*
X15820182Y-10653031D02*
X15810658Y-10672079D01*
X15810658Y-10672079D02*
X15810658Y-10719698D01*
X15810658Y-10719698D02*
X15820182Y-10738746D01*
X15820182Y-10738746D02*
X15829706Y-10748270D01*
X15829706Y-10748270D02*
X15848753Y-10757793D01*
X15848753Y-10757793D02*
X15886848Y-10757793D01*
X15886848Y-10757793D02*
X15905896Y-10748270D01*
X15905896Y-10748270D02*
X15915420Y-10738746D01*
X15915420Y-10738746D02*
X15924944Y-10719698D01*
X16001134Y-10633984D02*
X16001134Y-10672079D01*
X16077325Y-10633984D02*
X16077325Y-10672079D01*
X16372563Y-10910174D02*
X16363039Y-10900650D01*
X16363039Y-10900650D02*
X16343991Y-10872079D01*
X16343991Y-10872079D02*
X16334468Y-10853031D01*
X16334468Y-10853031D02*
X16324944Y-10824460D01*
X16324944Y-10824460D02*
X16315420Y-10776841D01*
X16315420Y-10776841D02*
X16315420Y-10738746D01*
X16315420Y-10738746D02*
X16324944Y-10691127D01*
X16324944Y-10691127D02*
X16334468Y-10662555D01*
X16334468Y-10662555D02*
X16343991Y-10643508D01*
X16343991Y-10643508D02*
X16363039Y-10614936D01*
X16363039Y-10614936D02*
X16372563Y-10605412D01*
X16429706Y-10633984D02*
X16553515Y-10633984D01*
X16553515Y-10633984D02*
X16486848Y-10710174D01*
X16486848Y-10710174D02*
X16515420Y-10710174D01*
X16515420Y-10710174D02*
X16534468Y-10719698D01*
X16534468Y-10719698D02*
X16543991Y-10729222D01*
X16543991Y-10729222D02*
X16553515Y-10748270D01*
X16553515Y-10748270D02*
X16553515Y-10795889D01*
X16553515Y-10795889D02*
X16543991Y-10814936D01*
X16543991Y-10814936D02*
X16534468Y-10824460D01*
X16534468Y-10824460D02*
X16515420Y-10833984D01*
X16515420Y-10833984D02*
X16458277Y-10833984D01*
X16458277Y-10833984D02*
X16439229Y-10824460D01*
X16439229Y-10824460D02*
X16429706Y-10814936D01*
X16743991Y-10833984D02*
X16629706Y-10833984D01*
X16686848Y-10833984D02*
X16686848Y-10633984D01*
X16686848Y-10633984D02*
X16667801Y-10662555D01*
X16667801Y-10662555D02*
X16648753Y-10681603D01*
X16648753Y-10681603D02*
X16629706Y-10691127D01*
X16982087Y-10833984D02*
X16982087Y-10633984D01*
X17067801Y-10833984D02*
X17067801Y-10729222D01*
X17067801Y-10729222D02*
X17058277Y-10710174D01*
X17058277Y-10710174D02*
X17039230Y-10700650D01*
X17039230Y-10700650D02*
X17010658Y-10700650D01*
X17010658Y-10700650D02*
X16991611Y-10710174D01*
X16991611Y-10710174D02*
X16982087Y-10719698D01*
X17191611Y-10833984D02*
X17172563Y-10824460D01*
X17172563Y-10824460D02*
X17163039Y-10814936D01*
X17163039Y-10814936D02*
X17153515Y-10795889D01*
X17153515Y-10795889D02*
X17153515Y-10738746D01*
X17153515Y-10738746D02*
X17163039Y-10719698D01*
X17163039Y-10719698D02*
X17172563Y-10710174D01*
X17172563Y-10710174D02*
X17191611Y-10700650D01*
X17191611Y-10700650D02*
X17220182Y-10700650D01*
X17220182Y-10700650D02*
X17239230Y-10710174D01*
X17239230Y-10710174D02*
X17248753Y-10719698D01*
X17248753Y-10719698D02*
X17258277Y-10738746D01*
X17258277Y-10738746D02*
X17258277Y-10795889D01*
X17258277Y-10795889D02*
X17248753Y-10814936D01*
X17248753Y-10814936D02*
X17239230Y-10824460D01*
X17239230Y-10824460D02*
X17220182Y-10833984D01*
X17220182Y-10833984D02*
X17191611Y-10833984D01*
X17372563Y-10833984D02*
X17353515Y-10824460D01*
X17353515Y-10824460D02*
X17343992Y-10805412D01*
X17343992Y-10805412D02*
X17343992Y-10633984D01*
X17524944Y-10824460D02*
X17505896Y-10833984D01*
X17505896Y-10833984D02*
X17467801Y-10833984D01*
X17467801Y-10833984D02*
X17448753Y-10824460D01*
X17448753Y-10824460D02*
X17439230Y-10805412D01*
X17439230Y-10805412D02*
X17439230Y-10729222D01*
X17439230Y-10729222D02*
X17448753Y-10710174D01*
X17448753Y-10710174D02*
X17467801Y-10700650D01*
X17467801Y-10700650D02*
X17505896Y-10700650D01*
X17505896Y-10700650D02*
X17524944Y-10710174D01*
X17524944Y-10710174D02*
X17534468Y-10729222D01*
X17534468Y-10729222D02*
X17534468Y-10748270D01*
X17534468Y-10748270D02*
X17439230Y-10767317D01*
X17610658Y-10824460D02*
X17629706Y-10833984D01*
X17629706Y-10833984D02*
X17667801Y-10833984D01*
X17667801Y-10833984D02*
X17686849Y-10824460D01*
X17686849Y-10824460D02*
X17696373Y-10805412D01*
X17696373Y-10805412D02*
X17696373Y-10795889D01*
X17696373Y-10795889D02*
X17686849Y-10776841D01*
X17686849Y-10776841D02*
X17667801Y-10767317D01*
X17667801Y-10767317D02*
X17639230Y-10767317D01*
X17639230Y-10767317D02*
X17620182Y-10757793D01*
X17620182Y-10757793D02*
X17610658Y-10738746D01*
X17610658Y-10738746D02*
X17610658Y-10729222D01*
X17610658Y-10729222D02*
X17620182Y-10710174D01*
X17620182Y-10710174D02*
X17639230Y-10700650D01*
X17639230Y-10700650D02*
X17667801Y-10700650D01*
X17667801Y-10700650D02*
X17686849Y-10710174D01*
X17763039Y-10910174D02*
X17772563Y-10900650D01*
X17772563Y-10900650D02*
X17791611Y-10872079D01*
X17791611Y-10872079D02*
X17801134Y-10853031D01*
X17801134Y-10853031D02*
X17810658Y-10824460D01*
X17810658Y-10824460D02*
X17820182Y-10776841D01*
X17820182Y-10776841D02*
X17820182Y-10738746D01*
X17820182Y-10738746D02*
X17810658Y-10691127D01*
X17810658Y-10691127D02*
X17801134Y-10662555D01*
X17801134Y-10662555D02*
X17791611Y-10643508D01*
X17791611Y-10643508D02*
X17772563Y-10614936D01*
X17772563Y-10614936D02*
X17763039Y-10605412D01*
D12*
X12797500Y-11006500D02*
G75*
G02*
X12767500Y-11006500I-15000J0D01*
G01*
X12767500Y-11006500D02*
G75*
G02*
X12797500Y-11006500I15000J0D01*
G01*
D11*
X13096372Y-10897984D02*
X13115420Y-10897984D01*
X13115420Y-10897984D02*
X13134467Y-10907508D01*
X13134467Y-10907508D02*
X13143991Y-10917031D01*
X13143991Y-10917031D02*
X13153515Y-10936079D01*
X13153515Y-10936079D02*
X13163039Y-10974174D01*
X13163039Y-10974174D02*
X13163039Y-11021793D01*
X13163039Y-11021793D02*
X13153515Y-11059889D01*
X13153515Y-11059889D02*
X13143991Y-11078936D01*
X13143991Y-11078936D02*
X13134467Y-11088460D01*
X13134467Y-11088460D02*
X13115420Y-11097984D01*
X13115420Y-11097984D02*
X13096372Y-11097984D01*
X13096372Y-11097984D02*
X13077324Y-11088460D01*
X13077324Y-11088460D02*
X13067801Y-11078936D01*
X13067801Y-11078936D02*
X13058277Y-11059889D01*
X13058277Y-11059889D02*
X13048753Y-11021793D01*
X13048753Y-11021793D02*
X13048753Y-10974174D01*
X13048753Y-10974174D02*
X13058277Y-10936079D01*
X13058277Y-10936079D02*
X13067801Y-10917031D01*
X13067801Y-10917031D02*
X13077324Y-10907508D01*
X13077324Y-10907508D02*
X13096372Y-10897984D01*
X13248753Y-11078936D02*
X13258277Y-11088460D01*
X13258277Y-11088460D02*
X13248753Y-11097984D01*
X13248753Y-11097984D02*
X13239229Y-11088460D01*
X13239229Y-11088460D02*
X13248753Y-11078936D01*
X13248753Y-11078936D02*
X13248753Y-11097984D01*
X13324943Y-10897984D02*
X13448753Y-10897984D01*
X13448753Y-10897984D02*
X13382086Y-10974174D01*
X13382086Y-10974174D02*
X13410658Y-10974174D01*
X13410658Y-10974174D02*
X13429705Y-10983698D01*
X13429705Y-10983698D02*
X13439229Y-10993222D01*
X13439229Y-10993222D02*
X13448753Y-11012270D01*
X13448753Y-11012270D02*
X13448753Y-11059889D01*
X13448753Y-11059889D02*
X13439229Y-11078936D01*
X13439229Y-11078936D02*
X13429705Y-11088460D01*
X13429705Y-11088460D02*
X13410658Y-11097984D01*
X13410658Y-11097984D02*
X13353515Y-11097984D01*
X13353515Y-11097984D02*
X13334467Y-11088460D01*
X13334467Y-11088460D02*
X13324943Y-11078936D01*
X13572562Y-10897984D02*
X13591610Y-10897984D01*
X13591610Y-10897984D02*
X13610658Y-10907508D01*
X13610658Y-10907508D02*
X13620182Y-10917031D01*
X13620182Y-10917031D02*
X13629705Y-10936079D01*
X13629705Y-10936079D02*
X13639229Y-10974174D01*
X13639229Y-10974174D02*
X13639229Y-11021793D01*
X13639229Y-11021793D02*
X13629705Y-11059889D01*
X13629705Y-11059889D02*
X13620182Y-11078936D01*
X13620182Y-11078936D02*
X13610658Y-11088460D01*
X13610658Y-11088460D02*
X13591610Y-11097984D01*
X13591610Y-11097984D02*
X13572562Y-11097984D01*
X13572562Y-11097984D02*
X13553515Y-11088460D01*
X13553515Y-11088460D02*
X13543991Y-11078936D01*
X13543991Y-11078936D02*
X13534467Y-11059889D01*
X13534467Y-11059889D02*
X13524943Y-11021793D01*
X13524943Y-11021793D02*
X13524943Y-10974174D01*
X13524943Y-10974174D02*
X13534467Y-10936079D01*
X13534467Y-10936079D02*
X13543991Y-10917031D01*
X13543991Y-10917031D02*
X13553515Y-10907508D01*
X13553515Y-10907508D02*
X13572562Y-10897984D01*
X13763039Y-10897984D02*
X13782086Y-10897984D01*
X13782086Y-10897984D02*
X13801134Y-10907508D01*
X13801134Y-10907508D02*
X13810658Y-10917031D01*
X13810658Y-10917031D02*
X13820182Y-10936079D01*
X13820182Y-10936079D02*
X13829705Y-10974174D01*
X13829705Y-10974174D02*
X13829705Y-11021793D01*
X13829705Y-11021793D02*
X13820182Y-11059889D01*
X13820182Y-11059889D02*
X13810658Y-11078936D01*
X13810658Y-11078936D02*
X13801134Y-11088460D01*
X13801134Y-11088460D02*
X13782086Y-11097984D01*
X13782086Y-11097984D02*
X13763039Y-11097984D01*
X13763039Y-11097984D02*
X13743991Y-11088460D01*
X13743991Y-11088460D02*
X13734467Y-11078936D01*
X13734467Y-11078936D02*
X13724943Y-11059889D01*
X13724943Y-11059889D02*
X13715420Y-11021793D01*
X13715420Y-11021793D02*
X13715420Y-10974174D01*
X13715420Y-10974174D02*
X13724943Y-10936079D01*
X13724943Y-10936079D02*
X13734467Y-10917031D01*
X13734467Y-10917031D02*
X13743991Y-10907508D01*
X13743991Y-10907508D02*
X13763039Y-10897984D01*
X13915420Y-11097984D02*
X13915420Y-10964650D01*
X13915420Y-10983698D02*
X13924943Y-10974174D01*
X13924943Y-10974174D02*
X13943991Y-10964650D01*
X13943991Y-10964650D02*
X13972563Y-10964650D01*
X13972563Y-10964650D02*
X13991610Y-10974174D01*
X13991610Y-10974174D02*
X14001134Y-10993222D01*
X14001134Y-10993222D02*
X14001134Y-11097984D01*
X14001134Y-10993222D02*
X14010658Y-10974174D01*
X14010658Y-10974174D02*
X14029705Y-10964650D01*
X14029705Y-10964650D02*
X14058277Y-10964650D01*
X14058277Y-10964650D02*
X14077324Y-10974174D01*
X14077324Y-10974174D02*
X14086848Y-10993222D01*
X14086848Y-10993222D02*
X14086848Y-11097984D01*
X14182086Y-11097984D02*
X14182086Y-10964650D01*
X14182086Y-10983698D02*
X14191610Y-10974174D01*
X14191610Y-10974174D02*
X14210658Y-10964650D01*
X14210658Y-10964650D02*
X14239229Y-10964650D01*
X14239229Y-10964650D02*
X14258277Y-10974174D01*
X14258277Y-10974174D02*
X14267801Y-10993222D01*
X14267801Y-10993222D02*
X14267801Y-11097984D01*
X14267801Y-10993222D02*
X14277324Y-10974174D01*
X14277324Y-10974174D02*
X14296372Y-10964650D01*
X14296372Y-10964650D02*
X14324943Y-10964650D01*
X14324943Y-10964650D02*
X14343991Y-10974174D01*
X14343991Y-10974174D02*
X14353515Y-10993222D01*
X14353515Y-10993222D02*
X14353515Y-11097984D01*
X14743991Y-10888460D02*
X14572563Y-11145603D01*
X15001134Y-10897984D02*
X15020182Y-10897984D01*
X15020182Y-10897984D02*
X15039229Y-10907508D01*
X15039229Y-10907508D02*
X15048753Y-10917031D01*
X15048753Y-10917031D02*
X15058277Y-10936079D01*
X15058277Y-10936079D02*
X15067801Y-10974174D01*
X15067801Y-10974174D02*
X15067801Y-11021793D01*
X15067801Y-11021793D02*
X15058277Y-11059889D01*
X15058277Y-11059889D02*
X15048753Y-11078936D01*
X15048753Y-11078936D02*
X15039229Y-11088460D01*
X15039229Y-11088460D02*
X15020182Y-11097984D01*
X15020182Y-11097984D02*
X15001134Y-11097984D01*
X15001134Y-11097984D02*
X14982086Y-11088460D01*
X14982086Y-11088460D02*
X14972563Y-11078936D01*
X14972563Y-11078936D02*
X14963039Y-11059889D01*
X14963039Y-11059889D02*
X14953515Y-11021793D01*
X14953515Y-11021793D02*
X14953515Y-10974174D01*
X14953515Y-10974174D02*
X14963039Y-10936079D01*
X14963039Y-10936079D02*
X14972563Y-10917031D01*
X14972563Y-10917031D02*
X14982086Y-10907508D01*
X14982086Y-10907508D02*
X15001134Y-10897984D01*
X15153515Y-11078936D02*
X15163039Y-11088460D01*
X15163039Y-11088460D02*
X15153515Y-11097984D01*
X15153515Y-11097984D02*
X15143991Y-11088460D01*
X15143991Y-11088460D02*
X15153515Y-11078936D01*
X15153515Y-11078936D02*
X15153515Y-11097984D01*
X15286848Y-10897984D02*
X15305896Y-10897984D01*
X15305896Y-10897984D02*
X15324944Y-10907508D01*
X15324944Y-10907508D02*
X15334467Y-10917031D01*
X15334467Y-10917031D02*
X15343991Y-10936079D01*
X15343991Y-10936079D02*
X15353515Y-10974174D01*
X15353515Y-10974174D02*
X15353515Y-11021793D01*
X15353515Y-11021793D02*
X15343991Y-11059889D01*
X15343991Y-11059889D02*
X15334467Y-11078936D01*
X15334467Y-11078936D02*
X15324944Y-11088460D01*
X15324944Y-11088460D02*
X15305896Y-11097984D01*
X15305896Y-11097984D02*
X15286848Y-11097984D01*
X15286848Y-11097984D02*
X15267801Y-11088460D01*
X15267801Y-11088460D02*
X15258277Y-11078936D01*
X15258277Y-11078936D02*
X15248753Y-11059889D01*
X15248753Y-11059889D02*
X15239229Y-11021793D01*
X15239229Y-11021793D02*
X15239229Y-10974174D01*
X15239229Y-10974174D02*
X15248753Y-10936079D01*
X15248753Y-10936079D02*
X15258277Y-10917031D01*
X15258277Y-10917031D02*
X15267801Y-10907508D01*
X15267801Y-10907508D02*
X15286848Y-10897984D01*
X15543991Y-11097984D02*
X15429706Y-11097984D01*
X15486848Y-11097984D02*
X15486848Y-10897984D01*
X15486848Y-10897984D02*
X15467801Y-10926555D01*
X15467801Y-10926555D02*
X15448753Y-10945603D01*
X15448753Y-10945603D02*
X15429706Y-10955127D01*
X15734467Y-11097984D02*
X15620182Y-11097984D01*
X15677325Y-11097984D02*
X15677325Y-10897984D01*
X15677325Y-10897984D02*
X15658277Y-10926555D01*
X15658277Y-10926555D02*
X15639229Y-10945603D01*
X15639229Y-10945603D02*
X15620182Y-10955127D01*
X15848753Y-10983698D02*
X15829706Y-10974174D01*
X15829706Y-10974174D02*
X15820182Y-10964650D01*
X15820182Y-10964650D02*
X15810658Y-10945603D01*
X15810658Y-10945603D02*
X15810658Y-10936079D01*
X15810658Y-10936079D02*
X15820182Y-10917031D01*
X15820182Y-10917031D02*
X15829706Y-10907508D01*
X15829706Y-10907508D02*
X15848753Y-10897984D01*
X15848753Y-10897984D02*
X15886848Y-10897984D01*
X15886848Y-10897984D02*
X15905896Y-10907508D01*
X15905896Y-10907508D02*
X15915420Y-10917031D01*
X15915420Y-10917031D02*
X15924944Y-10936079D01*
X15924944Y-10936079D02*
X15924944Y-10945603D01*
X15924944Y-10945603D02*
X15915420Y-10964650D01*
X15915420Y-10964650D02*
X15905896Y-10974174D01*
X15905896Y-10974174D02*
X15886848Y-10983698D01*
X15886848Y-10983698D02*
X15848753Y-10983698D01*
X15848753Y-10983698D02*
X15829706Y-10993222D01*
X15829706Y-10993222D02*
X15820182Y-11002746D01*
X15820182Y-11002746D02*
X15810658Y-11021793D01*
X15810658Y-11021793D02*
X15810658Y-11059889D01*
X15810658Y-11059889D02*
X15820182Y-11078936D01*
X15820182Y-11078936D02*
X15829706Y-11088460D01*
X15829706Y-11088460D02*
X15848753Y-11097984D01*
X15848753Y-11097984D02*
X15886848Y-11097984D01*
X15886848Y-11097984D02*
X15905896Y-11088460D01*
X15905896Y-11088460D02*
X15915420Y-11078936D01*
X15915420Y-11078936D02*
X15924944Y-11059889D01*
X15924944Y-11059889D02*
X15924944Y-11021793D01*
X15924944Y-11021793D02*
X15915420Y-11002746D01*
X15915420Y-11002746D02*
X15905896Y-10993222D01*
X15905896Y-10993222D02*
X15886848Y-10983698D01*
X16001134Y-10897984D02*
X16001134Y-10936079D01*
X16077325Y-10897984D02*
X16077325Y-10936079D01*
X16372563Y-11174174D02*
X16363039Y-11164650D01*
X16363039Y-11164650D02*
X16343991Y-11136079D01*
X16343991Y-11136079D02*
X16334468Y-11117031D01*
X16334468Y-11117031D02*
X16324944Y-11088460D01*
X16324944Y-11088460D02*
X16315420Y-11040841D01*
X16315420Y-11040841D02*
X16315420Y-11002746D01*
X16315420Y-11002746D02*
X16324944Y-10955127D01*
X16324944Y-10955127D02*
X16334468Y-10926555D01*
X16334468Y-10926555D02*
X16343991Y-10907508D01*
X16343991Y-10907508D02*
X16363039Y-10878936D01*
X16363039Y-10878936D02*
X16372563Y-10869412D01*
X16439229Y-10917031D02*
X16448753Y-10907508D01*
X16448753Y-10907508D02*
X16467801Y-10897984D01*
X16467801Y-10897984D02*
X16515420Y-10897984D01*
X16515420Y-10897984D02*
X16534468Y-10907508D01*
X16534468Y-10907508D02*
X16543991Y-10917031D01*
X16543991Y-10917031D02*
X16553515Y-10936079D01*
X16553515Y-10936079D02*
X16553515Y-10955127D01*
X16553515Y-10955127D02*
X16543991Y-10983698D01*
X16543991Y-10983698D02*
X16429706Y-11097984D01*
X16429706Y-11097984D02*
X16553515Y-11097984D01*
X16791611Y-11097984D02*
X16791611Y-10897984D01*
X16877325Y-11097984D02*
X16877325Y-10993222D01*
X16877325Y-10993222D02*
X16867801Y-10974174D01*
X16867801Y-10974174D02*
X16848753Y-10964650D01*
X16848753Y-10964650D02*
X16820182Y-10964650D01*
X16820182Y-10964650D02*
X16801134Y-10974174D01*
X16801134Y-10974174D02*
X16791611Y-10983698D01*
X17001134Y-11097984D02*
X16982087Y-11088460D01*
X16982087Y-11088460D02*
X16972563Y-11078936D01*
X16972563Y-11078936D02*
X16963039Y-11059889D01*
X16963039Y-11059889D02*
X16963039Y-11002746D01*
X16963039Y-11002746D02*
X16972563Y-10983698D01*
X16972563Y-10983698D02*
X16982087Y-10974174D01*
X16982087Y-10974174D02*
X17001134Y-10964650D01*
X17001134Y-10964650D02*
X17029706Y-10964650D01*
X17029706Y-10964650D02*
X17048753Y-10974174D01*
X17048753Y-10974174D02*
X17058277Y-10983698D01*
X17058277Y-10983698D02*
X17067801Y-11002746D01*
X17067801Y-11002746D02*
X17067801Y-11059889D01*
X17067801Y-11059889D02*
X17058277Y-11078936D01*
X17058277Y-11078936D02*
X17048753Y-11088460D01*
X17048753Y-11088460D02*
X17029706Y-11097984D01*
X17029706Y-11097984D02*
X17001134Y-11097984D01*
X17182087Y-11097984D02*
X17163039Y-11088460D01*
X17163039Y-11088460D02*
X17153515Y-11069412D01*
X17153515Y-11069412D02*
X17153515Y-10897984D01*
X17334468Y-11088460D02*
X17315420Y-11097984D01*
X17315420Y-11097984D02*
X17277325Y-11097984D01*
X17277325Y-11097984D02*
X17258277Y-11088460D01*
X17258277Y-11088460D02*
X17248753Y-11069412D01*
X17248753Y-11069412D02*
X17248753Y-10993222D01*
X17248753Y-10993222D02*
X17258277Y-10974174D01*
X17258277Y-10974174D02*
X17277325Y-10964650D01*
X17277325Y-10964650D02*
X17315420Y-10964650D01*
X17315420Y-10964650D02*
X17334468Y-10974174D01*
X17334468Y-10974174D02*
X17343992Y-10993222D01*
X17343992Y-10993222D02*
X17343992Y-11012270D01*
X17343992Y-11012270D02*
X17248753Y-11031317D01*
X17420182Y-11088460D02*
X17439230Y-11097984D01*
X17439230Y-11097984D02*
X17477325Y-11097984D01*
X17477325Y-11097984D02*
X17496373Y-11088460D01*
X17496373Y-11088460D02*
X17505896Y-11069412D01*
X17505896Y-11069412D02*
X17505896Y-11059889D01*
X17505896Y-11059889D02*
X17496373Y-11040841D01*
X17496373Y-11040841D02*
X17477325Y-11031317D01*
X17477325Y-11031317D02*
X17448753Y-11031317D01*
X17448753Y-11031317D02*
X17429706Y-11021793D01*
X17429706Y-11021793D02*
X17420182Y-11002746D01*
X17420182Y-11002746D02*
X17420182Y-10993222D01*
X17420182Y-10993222D02*
X17429706Y-10974174D01*
X17429706Y-10974174D02*
X17448753Y-10964650D01*
X17448753Y-10964650D02*
X17477325Y-10964650D01*
X17477325Y-10964650D02*
X17496373Y-10974174D01*
X17572563Y-11174174D02*
X17582087Y-11164650D01*
X17582087Y-11164650D02*
X17601134Y-11136079D01*
X17601134Y-11136079D02*
X17610658Y-11117031D01*
X17610658Y-11117031D02*
X17620182Y-11088460D01*
X17620182Y-11088460D02*
X17629706Y-11040841D01*
X17629706Y-11040841D02*
X17629706Y-11002746D01*
X17629706Y-11002746D02*
X17620182Y-10955127D01*
X17620182Y-10955127D02*
X17610658Y-10926555D01*
X17610658Y-10926555D02*
X17601134Y-10907508D01*
X17601134Y-10907508D02*
X17582087Y-10878936D01*
X17582087Y-10878936D02*
X17572563Y-10869412D01*
D12*
X12777500Y-11250500D02*
X12777500Y-11290500D01*
X12757500Y-11270500D02*
X12797500Y-11270500D01*
D11*
X13096372Y-11161984D02*
X13115420Y-11161984D01*
X13115420Y-11161984D02*
X13134467Y-11171508D01*
X13134467Y-11171508D02*
X13143991Y-11181031D01*
X13143991Y-11181031D02*
X13153515Y-11200079D01*
X13153515Y-11200079D02*
X13163039Y-11238174D01*
X13163039Y-11238174D02*
X13163039Y-11285793D01*
X13163039Y-11285793D02*
X13153515Y-11323888D01*
X13153515Y-11323888D02*
X13143991Y-11342936D01*
X13143991Y-11342936D02*
X13134467Y-11352460D01*
X13134467Y-11352460D02*
X13115420Y-11361984D01*
X13115420Y-11361984D02*
X13096372Y-11361984D01*
X13096372Y-11361984D02*
X13077324Y-11352460D01*
X13077324Y-11352460D02*
X13067801Y-11342936D01*
X13067801Y-11342936D02*
X13058277Y-11323888D01*
X13058277Y-11323888D02*
X13048753Y-11285793D01*
X13048753Y-11285793D02*
X13048753Y-11238174D01*
X13048753Y-11238174D02*
X13058277Y-11200079D01*
X13058277Y-11200079D02*
X13067801Y-11181031D01*
X13067801Y-11181031D02*
X13077324Y-11171508D01*
X13077324Y-11171508D02*
X13096372Y-11161984D01*
X13248753Y-11342936D02*
X13258277Y-11352460D01*
X13258277Y-11352460D02*
X13248753Y-11361984D01*
X13248753Y-11361984D02*
X13239229Y-11352460D01*
X13239229Y-11352460D02*
X13248753Y-11342936D01*
X13248753Y-11342936D02*
X13248753Y-11361984D01*
X13429705Y-11228650D02*
X13429705Y-11361984D01*
X13382086Y-11152460D02*
X13334467Y-11295317D01*
X13334467Y-11295317D02*
X13458277Y-11295317D01*
X13572562Y-11161984D02*
X13591610Y-11161984D01*
X13591610Y-11161984D02*
X13610658Y-11171508D01*
X13610658Y-11171508D02*
X13620182Y-11181031D01*
X13620182Y-11181031D02*
X13629705Y-11200079D01*
X13629705Y-11200079D02*
X13639229Y-11238174D01*
X13639229Y-11238174D02*
X13639229Y-11285793D01*
X13639229Y-11285793D02*
X13629705Y-11323888D01*
X13629705Y-11323888D02*
X13620182Y-11342936D01*
X13620182Y-11342936D02*
X13610658Y-11352460D01*
X13610658Y-11352460D02*
X13591610Y-11361984D01*
X13591610Y-11361984D02*
X13572562Y-11361984D01*
X13572562Y-11361984D02*
X13553515Y-11352460D01*
X13553515Y-11352460D02*
X13543991Y-11342936D01*
X13543991Y-11342936D02*
X13534467Y-11323888D01*
X13534467Y-11323888D02*
X13524943Y-11285793D01*
X13524943Y-11285793D02*
X13524943Y-11238174D01*
X13524943Y-11238174D02*
X13534467Y-11200079D01*
X13534467Y-11200079D02*
X13543991Y-11181031D01*
X13543991Y-11181031D02*
X13553515Y-11171508D01*
X13553515Y-11171508D02*
X13572562Y-11161984D01*
X13763039Y-11161984D02*
X13782086Y-11161984D01*
X13782086Y-11161984D02*
X13801134Y-11171508D01*
X13801134Y-11171508D02*
X13810658Y-11181031D01*
X13810658Y-11181031D02*
X13820182Y-11200079D01*
X13820182Y-11200079D02*
X13829705Y-11238174D01*
X13829705Y-11238174D02*
X13829705Y-11285793D01*
X13829705Y-11285793D02*
X13820182Y-11323888D01*
X13820182Y-11323888D02*
X13810658Y-11342936D01*
X13810658Y-11342936D02*
X13801134Y-11352460D01*
X13801134Y-11352460D02*
X13782086Y-11361984D01*
X13782086Y-11361984D02*
X13763039Y-11361984D01*
X13763039Y-11361984D02*
X13743991Y-11352460D01*
X13743991Y-11352460D02*
X13734467Y-11342936D01*
X13734467Y-11342936D02*
X13724943Y-11323888D01*
X13724943Y-11323888D02*
X13715420Y-11285793D01*
X13715420Y-11285793D02*
X13715420Y-11238174D01*
X13715420Y-11238174D02*
X13724943Y-11200079D01*
X13724943Y-11200079D02*
X13734467Y-11181031D01*
X13734467Y-11181031D02*
X13743991Y-11171508D01*
X13743991Y-11171508D02*
X13763039Y-11161984D01*
X13915420Y-11361984D02*
X13915420Y-11228650D01*
X13915420Y-11247698D02*
X13924943Y-11238174D01*
X13924943Y-11238174D02*
X13943991Y-11228650D01*
X13943991Y-11228650D02*
X13972563Y-11228650D01*
X13972563Y-11228650D02*
X13991610Y-11238174D01*
X13991610Y-11238174D02*
X14001134Y-11257222D01*
X14001134Y-11257222D02*
X14001134Y-11361984D01*
X14001134Y-11257222D02*
X14010658Y-11238174D01*
X14010658Y-11238174D02*
X14029705Y-11228650D01*
X14029705Y-11228650D02*
X14058277Y-11228650D01*
X14058277Y-11228650D02*
X14077324Y-11238174D01*
X14077324Y-11238174D02*
X14086848Y-11257222D01*
X14086848Y-11257222D02*
X14086848Y-11361984D01*
X14182086Y-11361984D02*
X14182086Y-11228650D01*
X14182086Y-11247698D02*
X14191610Y-11238174D01*
X14191610Y-11238174D02*
X14210658Y-11228650D01*
X14210658Y-11228650D02*
X14239229Y-11228650D01*
X14239229Y-11228650D02*
X14258277Y-11238174D01*
X14258277Y-11238174D02*
X14267801Y-11257222D01*
X14267801Y-11257222D02*
X14267801Y-11361984D01*
X14267801Y-11257222D02*
X14277324Y-11238174D01*
X14277324Y-11238174D02*
X14296372Y-11228650D01*
X14296372Y-11228650D02*
X14324943Y-11228650D01*
X14324943Y-11228650D02*
X14343991Y-11238174D01*
X14343991Y-11238174D02*
X14353515Y-11257222D01*
X14353515Y-11257222D02*
X14353515Y-11361984D01*
X14743991Y-11152460D02*
X14572563Y-11409603D01*
X15001134Y-11161984D02*
X15020182Y-11161984D01*
X15020182Y-11161984D02*
X15039229Y-11171508D01*
X15039229Y-11171508D02*
X15048753Y-11181031D01*
X15048753Y-11181031D02*
X15058277Y-11200079D01*
X15058277Y-11200079D02*
X15067801Y-11238174D01*
X15067801Y-11238174D02*
X15067801Y-11285793D01*
X15067801Y-11285793D02*
X15058277Y-11323888D01*
X15058277Y-11323888D02*
X15048753Y-11342936D01*
X15048753Y-11342936D02*
X15039229Y-11352460D01*
X15039229Y-11352460D02*
X15020182Y-11361984D01*
X15020182Y-11361984D02*
X15001134Y-11361984D01*
X15001134Y-11361984D02*
X14982086Y-11352460D01*
X14982086Y-11352460D02*
X14972563Y-11342936D01*
X14972563Y-11342936D02*
X14963039Y-11323888D01*
X14963039Y-11323888D02*
X14953515Y-11285793D01*
X14953515Y-11285793D02*
X14953515Y-11238174D01*
X14953515Y-11238174D02*
X14963039Y-11200079D01*
X14963039Y-11200079D02*
X14972563Y-11181031D01*
X14972563Y-11181031D02*
X14982086Y-11171508D01*
X14982086Y-11171508D02*
X15001134Y-11161984D01*
X15153515Y-11342936D02*
X15163039Y-11352460D01*
X15163039Y-11352460D02*
X15153515Y-11361984D01*
X15153515Y-11361984D02*
X15143991Y-11352460D01*
X15143991Y-11352460D02*
X15153515Y-11342936D01*
X15153515Y-11342936D02*
X15153515Y-11361984D01*
X15286848Y-11161984D02*
X15305896Y-11161984D01*
X15305896Y-11161984D02*
X15324944Y-11171508D01*
X15324944Y-11171508D02*
X15334467Y-11181031D01*
X15334467Y-11181031D02*
X15343991Y-11200079D01*
X15343991Y-11200079D02*
X15353515Y-11238174D01*
X15353515Y-11238174D02*
X15353515Y-11285793D01*
X15353515Y-11285793D02*
X15343991Y-11323888D01*
X15343991Y-11323888D02*
X15334467Y-11342936D01*
X15334467Y-11342936D02*
X15324944Y-11352460D01*
X15324944Y-11352460D02*
X15305896Y-11361984D01*
X15305896Y-11361984D02*
X15286848Y-11361984D01*
X15286848Y-11361984D02*
X15267801Y-11352460D01*
X15267801Y-11352460D02*
X15258277Y-11342936D01*
X15258277Y-11342936D02*
X15248753Y-11323888D01*
X15248753Y-11323888D02*
X15239229Y-11285793D01*
X15239229Y-11285793D02*
X15239229Y-11238174D01*
X15239229Y-11238174D02*
X15248753Y-11200079D01*
X15248753Y-11200079D02*
X15258277Y-11181031D01*
X15258277Y-11181031D02*
X15267801Y-11171508D01*
X15267801Y-11171508D02*
X15286848Y-11161984D01*
X15543991Y-11361984D02*
X15429706Y-11361984D01*
X15486848Y-11361984D02*
X15486848Y-11161984D01*
X15486848Y-11161984D02*
X15467801Y-11190555D01*
X15467801Y-11190555D02*
X15448753Y-11209603D01*
X15448753Y-11209603D02*
X15429706Y-11219127D01*
X15724944Y-11161984D02*
X15629706Y-11161984D01*
X15629706Y-11161984D02*
X15620182Y-11257222D01*
X15620182Y-11257222D02*
X15629706Y-11247698D01*
X15629706Y-11247698D02*
X15648753Y-11238174D01*
X15648753Y-11238174D02*
X15696372Y-11238174D01*
X15696372Y-11238174D02*
X15715420Y-11247698D01*
X15715420Y-11247698D02*
X15724944Y-11257222D01*
X15724944Y-11257222D02*
X15734467Y-11276269D01*
X15734467Y-11276269D02*
X15734467Y-11323888D01*
X15734467Y-11323888D02*
X15724944Y-11342936D01*
X15724944Y-11342936D02*
X15715420Y-11352460D01*
X15715420Y-11352460D02*
X15696372Y-11361984D01*
X15696372Y-11361984D02*
X15648753Y-11361984D01*
X15648753Y-11361984D02*
X15629706Y-11352460D01*
X15629706Y-11352460D02*
X15620182Y-11342936D01*
X15801134Y-11161984D02*
X15934467Y-11161984D01*
X15934467Y-11161984D02*
X15848753Y-11361984D01*
X16001134Y-11161984D02*
X16001134Y-11200079D01*
X16077325Y-11161984D02*
X16077325Y-11200079D01*
X16372563Y-11438174D02*
X16363039Y-11428650D01*
X16363039Y-11428650D02*
X16343991Y-11400079D01*
X16343991Y-11400079D02*
X16334468Y-11381031D01*
X16334468Y-11381031D02*
X16324944Y-11352460D01*
X16324944Y-11352460D02*
X16315420Y-11304841D01*
X16315420Y-11304841D02*
X16315420Y-11266746D01*
X16315420Y-11266746D02*
X16324944Y-11219127D01*
X16324944Y-11219127D02*
X16334468Y-11190555D01*
X16334468Y-11190555D02*
X16343991Y-11171508D01*
X16343991Y-11171508D02*
X16363039Y-11142936D01*
X16363039Y-11142936D02*
X16372563Y-11133412D01*
X16553515Y-11361984D02*
X16439229Y-11361984D01*
X16496372Y-11361984D02*
X16496372Y-11161984D01*
X16496372Y-11161984D02*
X16477325Y-11190555D01*
X16477325Y-11190555D02*
X16458277Y-11209603D01*
X16458277Y-11209603D02*
X16439229Y-11219127D01*
X16629706Y-11181031D02*
X16639229Y-11171508D01*
X16639229Y-11171508D02*
X16658277Y-11161984D01*
X16658277Y-11161984D02*
X16705896Y-11161984D01*
X16705896Y-11161984D02*
X16724944Y-11171508D01*
X16724944Y-11171508D02*
X16734468Y-11181031D01*
X16734468Y-11181031D02*
X16743991Y-11200079D01*
X16743991Y-11200079D02*
X16743991Y-11219127D01*
X16743991Y-11219127D02*
X16734468Y-11247698D01*
X16734468Y-11247698D02*
X16620182Y-11361984D01*
X16620182Y-11361984D02*
X16743991Y-11361984D01*
X16982087Y-11361984D02*
X16982087Y-11161984D01*
X17067801Y-11361984D02*
X17067801Y-11257222D01*
X17067801Y-11257222D02*
X17058277Y-11238174D01*
X17058277Y-11238174D02*
X17039230Y-11228650D01*
X17039230Y-11228650D02*
X17010658Y-11228650D01*
X17010658Y-11228650D02*
X16991611Y-11238174D01*
X16991611Y-11238174D02*
X16982087Y-11247698D01*
X17191611Y-11361984D02*
X17172563Y-11352460D01*
X17172563Y-11352460D02*
X17163039Y-11342936D01*
X17163039Y-11342936D02*
X17153515Y-11323888D01*
X17153515Y-11323888D02*
X17153515Y-11266746D01*
X17153515Y-11266746D02*
X17163039Y-11247698D01*
X17163039Y-11247698D02*
X17172563Y-11238174D01*
X17172563Y-11238174D02*
X17191611Y-11228650D01*
X17191611Y-11228650D02*
X17220182Y-11228650D01*
X17220182Y-11228650D02*
X17239230Y-11238174D01*
X17239230Y-11238174D02*
X17248753Y-11247698D01*
X17248753Y-11247698D02*
X17258277Y-11266746D01*
X17258277Y-11266746D02*
X17258277Y-11323888D01*
X17258277Y-11323888D02*
X17248753Y-11342936D01*
X17248753Y-11342936D02*
X17239230Y-11352460D01*
X17239230Y-11352460D02*
X17220182Y-11361984D01*
X17220182Y-11361984D02*
X17191611Y-11361984D01*
X17372563Y-11361984D02*
X17353515Y-11352460D01*
X17353515Y-11352460D02*
X17343992Y-11333412D01*
X17343992Y-11333412D02*
X17343992Y-11161984D01*
X17524944Y-11352460D02*
X17505896Y-11361984D01*
X17505896Y-11361984D02*
X17467801Y-11361984D01*
X17467801Y-11361984D02*
X17448753Y-11352460D01*
X17448753Y-11352460D02*
X17439230Y-11333412D01*
X17439230Y-11333412D02*
X17439230Y-11257222D01*
X17439230Y-11257222D02*
X17448753Y-11238174D01*
X17448753Y-11238174D02*
X17467801Y-11228650D01*
X17467801Y-11228650D02*
X17505896Y-11228650D01*
X17505896Y-11228650D02*
X17524944Y-11238174D01*
X17524944Y-11238174D02*
X17534468Y-11257222D01*
X17534468Y-11257222D02*
X17534468Y-11276269D01*
X17534468Y-11276269D02*
X17439230Y-11295317D01*
X17610658Y-11352460D02*
X17629706Y-11361984D01*
X17629706Y-11361984D02*
X17667801Y-11361984D01*
X17667801Y-11361984D02*
X17686849Y-11352460D01*
X17686849Y-11352460D02*
X17696373Y-11333412D01*
X17696373Y-11333412D02*
X17696373Y-11323888D01*
X17696373Y-11323888D02*
X17686849Y-11304841D01*
X17686849Y-11304841D02*
X17667801Y-11295317D01*
X17667801Y-11295317D02*
X17639230Y-11295317D01*
X17639230Y-11295317D02*
X17620182Y-11285793D01*
X17620182Y-11285793D02*
X17610658Y-11266746D01*
X17610658Y-11266746D02*
X17610658Y-11257222D01*
X17610658Y-11257222D02*
X17620182Y-11238174D01*
X17620182Y-11238174D02*
X17639230Y-11228650D01*
X17639230Y-11228650D02*
X17667801Y-11228650D01*
X17667801Y-11228650D02*
X17686849Y-11238174D01*
X17763039Y-11438174D02*
X17772563Y-11428650D01*
X17772563Y-11428650D02*
X17791611Y-11400079D01*
X17791611Y-11400079D02*
X17801134Y-11381031D01*
X17801134Y-11381031D02*
X17810658Y-11352460D01*
X17810658Y-11352460D02*
X17820182Y-11304841D01*
X17820182Y-11304841D02*
X17820182Y-11266746D01*
X17820182Y-11266746D02*
X17810658Y-11219127D01*
X17810658Y-11219127D02*
X17801134Y-11190555D01*
X17801134Y-11190555D02*
X17791611Y-11171508D01*
X17791611Y-11171508D02*
X17772563Y-11142936D01*
X17772563Y-11142936D02*
X17763039Y-11133412D01*
D12*
X12788713Y-11555713D02*
X12788713Y-11513287D01*
X12746287Y-11513287D01*
X12746287Y-11555713D01*
X12788713Y-11555713D01*
D11*
X13096372Y-11425984D02*
X13115420Y-11425984D01*
X13115420Y-11425984D02*
X13134467Y-11435508D01*
X13134467Y-11435508D02*
X13143991Y-11445031D01*
X13143991Y-11445031D02*
X13153515Y-11464079D01*
X13153515Y-11464079D02*
X13163039Y-11502174D01*
X13163039Y-11502174D02*
X13163039Y-11549793D01*
X13163039Y-11549793D02*
X13153515Y-11587888D01*
X13153515Y-11587888D02*
X13143991Y-11606936D01*
X13143991Y-11606936D02*
X13134467Y-11616460D01*
X13134467Y-11616460D02*
X13115420Y-11625984D01*
X13115420Y-11625984D02*
X13096372Y-11625984D01*
X13096372Y-11625984D02*
X13077324Y-11616460D01*
X13077324Y-11616460D02*
X13067801Y-11606936D01*
X13067801Y-11606936D02*
X13058277Y-11587888D01*
X13058277Y-11587888D02*
X13048753Y-11549793D01*
X13048753Y-11549793D02*
X13048753Y-11502174D01*
X13048753Y-11502174D02*
X13058277Y-11464079D01*
X13058277Y-11464079D02*
X13067801Y-11445031D01*
X13067801Y-11445031D02*
X13077324Y-11435508D01*
X13077324Y-11435508D02*
X13096372Y-11425984D01*
X13248753Y-11606936D02*
X13258277Y-11616460D01*
X13258277Y-11616460D02*
X13248753Y-11625984D01*
X13248753Y-11625984D02*
X13239229Y-11616460D01*
X13239229Y-11616460D02*
X13248753Y-11606936D01*
X13248753Y-11606936D02*
X13248753Y-11625984D01*
X13429705Y-11425984D02*
X13391610Y-11425984D01*
X13391610Y-11425984D02*
X13372562Y-11435508D01*
X13372562Y-11435508D02*
X13363039Y-11445031D01*
X13363039Y-11445031D02*
X13343991Y-11473603D01*
X13343991Y-11473603D02*
X13334467Y-11511698D01*
X13334467Y-11511698D02*
X13334467Y-11587888D01*
X13334467Y-11587888D02*
X13343991Y-11606936D01*
X13343991Y-11606936D02*
X13353515Y-11616460D01*
X13353515Y-11616460D02*
X13372562Y-11625984D01*
X13372562Y-11625984D02*
X13410658Y-11625984D01*
X13410658Y-11625984D02*
X13429705Y-11616460D01*
X13429705Y-11616460D02*
X13439229Y-11606936D01*
X13439229Y-11606936D02*
X13448753Y-11587888D01*
X13448753Y-11587888D02*
X13448753Y-11540269D01*
X13448753Y-11540269D02*
X13439229Y-11521222D01*
X13439229Y-11521222D02*
X13429705Y-11511698D01*
X13429705Y-11511698D02*
X13410658Y-11502174D01*
X13410658Y-11502174D02*
X13372562Y-11502174D01*
X13372562Y-11502174D02*
X13353515Y-11511698D01*
X13353515Y-11511698D02*
X13343991Y-11521222D01*
X13343991Y-11521222D02*
X13334467Y-11540269D01*
X13572562Y-11425984D02*
X13591610Y-11425984D01*
X13591610Y-11425984D02*
X13610658Y-11435508D01*
X13610658Y-11435508D02*
X13620182Y-11445031D01*
X13620182Y-11445031D02*
X13629705Y-11464079D01*
X13629705Y-11464079D02*
X13639229Y-11502174D01*
X13639229Y-11502174D02*
X13639229Y-11549793D01*
X13639229Y-11549793D02*
X13629705Y-11587888D01*
X13629705Y-11587888D02*
X13620182Y-11606936D01*
X13620182Y-11606936D02*
X13610658Y-11616460D01*
X13610658Y-11616460D02*
X13591610Y-11625984D01*
X13591610Y-11625984D02*
X13572562Y-11625984D01*
X13572562Y-11625984D02*
X13553515Y-11616460D01*
X13553515Y-11616460D02*
X13543991Y-11606936D01*
X13543991Y-11606936D02*
X13534467Y-11587888D01*
X13534467Y-11587888D02*
X13524943Y-11549793D01*
X13524943Y-11549793D02*
X13524943Y-11502174D01*
X13524943Y-11502174D02*
X13534467Y-11464079D01*
X13534467Y-11464079D02*
X13543991Y-11445031D01*
X13543991Y-11445031D02*
X13553515Y-11435508D01*
X13553515Y-11435508D02*
X13572562Y-11425984D01*
X13763039Y-11425984D02*
X13782086Y-11425984D01*
X13782086Y-11425984D02*
X13801134Y-11435508D01*
X13801134Y-11435508D02*
X13810658Y-11445031D01*
X13810658Y-11445031D02*
X13820182Y-11464079D01*
X13820182Y-11464079D02*
X13829705Y-11502174D01*
X13829705Y-11502174D02*
X13829705Y-11549793D01*
X13829705Y-11549793D02*
X13820182Y-11587888D01*
X13820182Y-11587888D02*
X13810658Y-11606936D01*
X13810658Y-11606936D02*
X13801134Y-11616460D01*
X13801134Y-11616460D02*
X13782086Y-11625984D01*
X13782086Y-11625984D02*
X13763039Y-11625984D01*
X13763039Y-11625984D02*
X13743991Y-11616460D01*
X13743991Y-11616460D02*
X13734467Y-11606936D01*
X13734467Y-11606936D02*
X13724943Y-11587888D01*
X13724943Y-11587888D02*
X13715420Y-11549793D01*
X13715420Y-11549793D02*
X13715420Y-11502174D01*
X13715420Y-11502174D02*
X13724943Y-11464079D01*
X13724943Y-11464079D02*
X13734467Y-11445031D01*
X13734467Y-11445031D02*
X13743991Y-11435508D01*
X13743991Y-11435508D02*
X13763039Y-11425984D01*
X13915420Y-11625984D02*
X13915420Y-11492650D01*
X13915420Y-11511698D02*
X13924943Y-11502174D01*
X13924943Y-11502174D02*
X13943991Y-11492650D01*
X13943991Y-11492650D02*
X13972563Y-11492650D01*
X13972563Y-11492650D02*
X13991610Y-11502174D01*
X13991610Y-11502174D02*
X14001134Y-11521222D01*
X14001134Y-11521222D02*
X14001134Y-11625984D01*
X14001134Y-11521222D02*
X14010658Y-11502174D01*
X14010658Y-11502174D02*
X14029705Y-11492650D01*
X14029705Y-11492650D02*
X14058277Y-11492650D01*
X14058277Y-11492650D02*
X14077324Y-11502174D01*
X14077324Y-11502174D02*
X14086848Y-11521222D01*
X14086848Y-11521222D02*
X14086848Y-11625984D01*
X14182086Y-11625984D02*
X14182086Y-11492650D01*
X14182086Y-11511698D02*
X14191610Y-11502174D01*
X14191610Y-11502174D02*
X14210658Y-11492650D01*
X14210658Y-11492650D02*
X14239229Y-11492650D01*
X14239229Y-11492650D02*
X14258277Y-11502174D01*
X14258277Y-11502174D02*
X14267801Y-11521222D01*
X14267801Y-11521222D02*
X14267801Y-11625984D01*
X14267801Y-11521222D02*
X14277324Y-11502174D01*
X14277324Y-11502174D02*
X14296372Y-11492650D01*
X14296372Y-11492650D02*
X14324943Y-11492650D01*
X14324943Y-11492650D02*
X14343991Y-11502174D01*
X14343991Y-11502174D02*
X14353515Y-11521222D01*
X14353515Y-11521222D02*
X14353515Y-11625984D01*
X14743991Y-11416460D02*
X14572563Y-11673603D01*
X15001134Y-11425984D02*
X15020182Y-11425984D01*
X15020182Y-11425984D02*
X15039229Y-11435508D01*
X15039229Y-11435508D02*
X15048753Y-11445031D01*
X15048753Y-11445031D02*
X15058277Y-11464079D01*
X15058277Y-11464079D02*
X15067801Y-11502174D01*
X15067801Y-11502174D02*
X15067801Y-11549793D01*
X15067801Y-11549793D02*
X15058277Y-11587888D01*
X15058277Y-11587888D02*
X15048753Y-11606936D01*
X15048753Y-11606936D02*
X15039229Y-11616460D01*
X15039229Y-11616460D02*
X15020182Y-11625984D01*
X15020182Y-11625984D02*
X15001134Y-11625984D01*
X15001134Y-11625984D02*
X14982086Y-11616460D01*
X14982086Y-11616460D02*
X14972563Y-11606936D01*
X14972563Y-11606936D02*
X14963039Y-11587888D01*
X14963039Y-11587888D02*
X14953515Y-11549793D01*
X14953515Y-11549793D02*
X14953515Y-11502174D01*
X14953515Y-11502174D02*
X14963039Y-11464079D01*
X14963039Y-11464079D02*
X14972563Y-11445031D01*
X14972563Y-11445031D02*
X14982086Y-11435508D01*
X14982086Y-11435508D02*
X15001134Y-11425984D01*
X15153515Y-11606936D02*
X15163039Y-11616460D01*
X15163039Y-11616460D02*
X15153515Y-11625984D01*
X15153515Y-11625984D02*
X15143991Y-11616460D01*
X15143991Y-11616460D02*
X15153515Y-11606936D01*
X15153515Y-11606936D02*
X15153515Y-11625984D01*
X15286848Y-11425984D02*
X15305896Y-11425984D01*
X15305896Y-11425984D02*
X15324944Y-11435508D01*
X15324944Y-11435508D02*
X15334467Y-11445031D01*
X15334467Y-11445031D02*
X15343991Y-11464079D01*
X15343991Y-11464079D02*
X15353515Y-11502174D01*
X15353515Y-11502174D02*
X15353515Y-11549793D01*
X15353515Y-11549793D02*
X15343991Y-11587888D01*
X15343991Y-11587888D02*
X15334467Y-11606936D01*
X15334467Y-11606936D02*
X15324944Y-11616460D01*
X15324944Y-11616460D02*
X15305896Y-11625984D01*
X15305896Y-11625984D02*
X15286848Y-11625984D01*
X15286848Y-11625984D02*
X15267801Y-11616460D01*
X15267801Y-11616460D02*
X15258277Y-11606936D01*
X15258277Y-11606936D02*
X15248753Y-11587888D01*
X15248753Y-11587888D02*
X15239229Y-11549793D01*
X15239229Y-11549793D02*
X15239229Y-11502174D01*
X15239229Y-11502174D02*
X15248753Y-11464079D01*
X15248753Y-11464079D02*
X15258277Y-11445031D01*
X15258277Y-11445031D02*
X15267801Y-11435508D01*
X15267801Y-11435508D02*
X15286848Y-11425984D01*
X15429706Y-11445031D02*
X15439229Y-11435508D01*
X15439229Y-11435508D02*
X15458277Y-11425984D01*
X15458277Y-11425984D02*
X15505896Y-11425984D01*
X15505896Y-11425984D02*
X15524944Y-11435508D01*
X15524944Y-11435508D02*
X15534467Y-11445031D01*
X15534467Y-11445031D02*
X15543991Y-11464079D01*
X15543991Y-11464079D02*
X15543991Y-11483127D01*
X15543991Y-11483127D02*
X15534467Y-11511698D01*
X15534467Y-11511698D02*
X15420182Y-11625984D01*
X15420182Y-11625984D02*
X15543991Y-11625984D01*
X15610658Y-11425984D02*
X15734467Y-11425984D01*
X15734467Y-11425984D02*
X15667801Y-11502174D01*
X15667801Y-11502174D02*
X15696372Y-11502174D01*
X15696372Y-11502174D02*
X15715420Y-11511698D01*
X15715420Y-11511698D02*
X15724944Y-11521222D01*
X15724944Y-11521222D02*
X15734467Y-11540269D01*
X15734467Y-11540269D02*
X15734467Y-11587888D01*
X15734467Y-11587888D02*
X15724944Y-11606936D01*
X15724944Y-11606936D02*
X15715420Y-11616460D01*
X15715420Y-11616460D02*
X15696372Y-11625984D01*
X15696372Y-11625984D02*
X15639229Y-11625984D01*
X15639229Y-11625984D02*
X15620182Y-11616460D01*
X15620182Y-11616460D02*
X15610658Y-11606936D01*
X15905896Y-11425984D02*
X15867801Y-11425984D01*
X15867801Y-11425984D02*
X15848753Y-11435508D01*
X15848753Y-11435508D02*
X15839229Y-11445031D01*
X15839229Y-11445031D02*
X15820182Y-11473603D01*
X15820182Y-11473603D02*
X15810658Y-11511698D01*
X15810658Y-11511698D02*
X15810658Y-11587888D01*
X15810658Y-11587888D02*
X15820182Y-11606936D01*
X15820182Y-11606936D02*
X15829706Y-11616460D01*
X15829706Y-11616460D02*
X15848753Y-11625984D01*
X15848753Y-11625984D02*
X15886848Y-11625984D01*
X15886848Y-11625984D02*
X15905896Y-11616460D01*
X15905896Y-11616460D02*
X15915420Y-11606936D01*
X15915420Y-11606936D02*
X15924944Y-11587888D01*
X15924944Y-11587888D02*
X15924944Y-11540269D01*
X15924944Y-11540269D02*
X15915420Y-11521222D01*
X15915420Y-11521222D02*
X15905896Y-11511698D01*
X15905896Y-11511698D02*
X15886848Y-11502174D01*
X15886848Y-11502174D02*
X15848753Y-11502174D01*
X15848753Y-11502174D02*
X15829706Y-11511698D01*
X15829706Y-11511698D02*
X15820182Y-11521222D01*
X15820182Y-11521222D02*
X15810658Y-11540269D01*
X16001134Y-11425984D02*
X16001134Y-11464079D01*
X16077325Y-11425984D02*
X16077325Y-11464079D01*
X16372563Y-11702174D02*
X16363039Y-11692650D01*
X16363039Y-11692650D02*
X16343991Y-11664079D01*
X16343991Y-11664079D02*
X16334468Y-11645031D01*
X16334468Y-11645031D02*
X16324944Y-11616460D01*
X16324944Y-11616460D02*
X16315420Y-11568841D01*
X16315420Y-11568841D02*
X16315420Y-11530746D01*
X16315420Y-11530746D02*
X16324944Y-11483127D01*
X16324944Y-11483127D02*
X16334468Y-11454555D01*
X16334468Y-11454555D02*
X16343991Y-11435508D01*
X16343991Y-11435508D02*
X16363039Y-11406936D01*
X16363039Y-11406936D02*
X16372563Y-11397412D01*
X16486848Y-11425984D02*
X16505896Y-11425984D01*
X16505896Y-11425984D02*
X16524944Y-11435508D01*
X16524944Y-11435508D02*
X16534468Y-11445031D01*
X16534468Y-11445031D02*
X16543991Y-11464079D01*
X16543991Y-11464079D02*
X16553515Y-11502174D01*
X16553515Y-11502174D02*
X16553515Y-11549793D01*
X16553515Y-11549793D02*
X16543991Y-11587888D01*
X16543991Y-11587888D02*
X16534468Y-11606936D01*
X16534468Y-11606936D02*
X16524944Y-11616460D01*
X16524944Y-11616460D02*
X16505896Y-11625984D01*
X16505896Y-11625984D02*
X16486848Y-11625984D01*
X16486848Y-11625984D02*
X16467801Y-11616460D01*
X16467801Y-11616460D02*
X16458277Y-11606936D01*
X16458277Y-11606936D02*
X16448753Y-11587888D01*
X16448753Y-11587888D02*
X16439229Y-11549793D01*
X16439229Y-11549793D02*
X16439229Y-11502174D01*
X16439229Y-11502174D02*
X16448753Y-11464079D01*
X16448753Y-11464079D02*
X16458277Y-11445031D01*
X16458277Y-11445031D02*
X16467801Y-11435508D01*
X16467801Y-11435508D02*
X16486848Y-11425984D01*
X16791611Y-11625984D02*
X16791611Y-11425984D01*
X16877325Y-11625984D02*
X16877325Y-11521222D01*
X16877325Y-11521222D02*
X16867801Y-11502174D01*
X16867801Y-11502174D02*
X16848753Y-11492650D01*
X16848753Y-11492650D02*
X16820182Y-11492650D01*
X16820182Y-11492650D02*
X16801134Y-11502174D01*
X16801134Y-11502174D02*
X16791611Y-11511698D01*
X17001134Y-11625984D02*
X16982087Y-11616460D01*
X16982087Y-11616460D02*
X16972563Y-11606936D01*
X16972563Y-11606936D02*
X16963039Y-11587888D01*
X16963039Y-11587888D02*
X16963039Y-11530746D01*
X16963039Y-11530746D02*
X16972563Y-11511698D01*
X16972563Y-11511698D02*
X16982087Y-11502174D01*
X16982087Y-11502174D02*
X17001134Y-11492650D01*
X17001134Y-11492650D02*
X17029706Y-11492650D01*
X17029706Y-11492650D02*
X17048753Y-11502174D01*
X17048753Y-11502174D02*
X17058277Y-11511698D01*
X17058277Y-11511698D02*
X17067801Y-11530746D01*
X17067801Y-11530746D02*
X17067801Y-11587888D01*
X17067801Y-11587888D02*
X17058277Y-11606936D01*
X17058277Y-11606936D02*
X17048753Y-11616460D01*
X17048753Y-11616460D02*
X17029706Y-11625984D01*
X17029706Y-11625984D02*
X17001134Y-11625984D01*
X17182087Y-11625984D02*
X17163039Y-11616460D01*
X17163039Y-11616460D02*
X17153515Y-11597412D01*
X17153515Y-11597412D02*
X17153515Y-11425984D01*
X17334468Y-11616460D02*
X17315420Y-11625984D01*
X17315420Y-11625984D02*
X17277325Y-11625984D01*
X17277325Y-11625984D02*
X17258277Y-11616460D01*
X17258277Y-11616460D02*
X17248753Y-11597412D01*
X17248753Y-11597412D02*
X17248753Y-11521222D01*
X17248753Y-11521222D02*
X17258277Y-11502174D01*
X17258277Y-11502174D02*
X17277325Y-11492650D01*
X17277325Y-11492650D02*
X17315420Y-11492650D01*
X17315420Y-11492650D02*
X17334468Y-11502174D01*
X17334468Y-11502174D02*
X17343992Y-11521222D01*
X17343992Y-11521222D02*
X17343992Y-11540269D01*
X17343992Y-11540269D02*
X17248753Y-11559317D01*
X17420182Y-11616460D02*
X17439230Y-11625984D01*
X17439230Y-11625984D02*
X17477325Y-11625984D01*
X17477325Y-11625984D02*
X17496373Y-11616460D01*
X17496373Y-11616460D02*
X17505896Y-11597412D01*
X17505896Y-11597412D02*
X17505896Y-11587888D01*
X17505896Y-11587888D02*
X17496373Y-11568841D01*
X17496373Y-11568841D02*
X17477325Y-11559317D01*
X17477325Y-11559317D02*
X17448753Y-11559317D01*
X17448753Y-11559317D02*
X17429706Y-11549793D01*
X17429706Y-11549793D02*
X17420182Y-11530746D01*
X17420182Y-11530746D02*
X17420182Y-11521222D01*
X17420182Y-11521222D02*
X17429706Y-11502174D01*
X17429706Y-11502174D02*
X17448753Y-11492650D01*
X17448753Y-11492650D02*
X17477325Y-11492650D01*
X17477325Y-11492650D02*
X17496373Y-11502174D01*
X17743992Y-11549793D02*
X17896373Y-11549793D01*
X17820182Y-11625984D02*
X17820182Y-11473603D01*
X18229706Y-11492650D02*
X18229706Y-11625984D01*
X18182087Y-11416460D02*
X18134468Y-11559317D01*
X18134468Y-11559317D02*
X18258277Y-11559317D01*
X18477325Y-11616460D02*
X18496373Y-11625984D01*
X18496373Y-11625984D02*
X18534468Y-11625984D01*
X18534468Y-11625984D02*
X18553516Y-11616460D01*
X18553516Y-11616460D02*
X18563039Y-11597412D01*
X18563039Y-11597412D02*
X18563039Y-11587888D01*
X18563039Y-11587888D02*
X18553516Y-11568841D01*
X18553516Y-11568841D02*
X18534468Y-11559317D01*
X18534468Y-11559317D02*
X18505896Y-11559317D01*
X18505896Y-11559317D02*
X18486849Y-11549793D01*
X18486849Y-11549793D02*
X18477325Y-11530746D01*
X18477325Y-11530746D02*
X18477325Y-11521222D01*
X18477325Y-11521222D02*
X18486849Y-11502174D01*
X18486849Y-11502174D02*
X18505896Y-11492650D01*
X18505896Y-11492650D02*
X18534468Y-11492650D01*
X18534468Y-11492650D02*
X18553516Y-11502174D01*
X18677325Y-11625984D02*
X18658277Y-11616460D01*
X18658277Y-11616460D02*
X18648754Y-11597412D01*
X18648754Y-11597412D02*
X18648754Y-11425984D01*
X18782087Y-11625984D02*
X18763039Y-11616460D01*
X18763039Y-11616460D02*
X18753516Y-11606936D01*
X18753516Y-11606936D02*
X18743992Y-11587888D01*
X18743992Y-11587888D02*
X18743992Y-11530746D01*
X18743992Y-11530746D02*
X18753516Y-11511698D01*
X18753516Y-11511698D02*
X18763039Y-11502174D01*
X18763039Y-11502174D02*
X18782087Y-11492650D01*
X18782087Y-11492650D02*
X18810658Y-11492650D01*
X18810658Y-11492650D02*
X18829706Y-11502174D01*
X18829706Y-11502174D02*
X18839230Y-11511698D01*
X18839230Y-11511698D02*
X18848754Y-11530746D01*
X18848754Y-11530746D02*
X18848754Y-11587888D01*
X18848754Y-11587888D02*
X18839230Y-11606936D01*
X18839230Y-11606936D02*
X18829706Y-11616460D01*
X18829706Y-11616460D02*
X18810658Y-11625984D01*
X18810658Y-11625984D02*
X18782087Y-11625984D01*
X18905897Y-11492650D02*
X18982087Y-11492650D01*
X18934468Y-11425984D02*
X18934468Y-11597412D01*
X18934468Y-11597412D02*
X18943992Y-11616460D01*
X18943992Y-11616460D02*
X18963039Y-11625984D01*
X18963039Y-11625984D02*
X18982087Y-11625984D01*
X19039230Y-11616460D02*
X19058277Y-11625984D01*
X19058277Y-11625984D02*
X19096373Y-11625984D01*
X19096373Y-11625984D02*
X19115420Y-11616460D01*
X19115420Y-11616460D02*
X19124944Y-11597412D01*
X19124944Y-11597412D02*
X19124944Y-11587888D01*
X19124944Y-11587888D02*
X19115420Y-11568841D01*
X19115420Y-11568841D02*
X19096373Y-11559317D01*
X19096373Y-11559317D02*
X19067801Y-11559317D01*
X19067801Y-11559317D02*
X19048754Y-11549793D01*
X19048754Y-11549793D02*
X19039230Y-11530746D01*
X19039230Y-11530746D02*
X19039230Y-11521222D01*
X19039230Y-11521222D02*
X19048754Y-11502174D01*
X19048754Y-11502174D02*
X19067801Y-11492650D01*
X19067801Y-11492650D02*
X19096373Y-11492650D01*
X19096373Y-11492650D02*
X19115420Y-11502174D01*
X19191611Y-11702174D02*
X19201135Y-11692650D01*
X19201135Y-11692650D02*
X19220182Y-11664079D01*
X19220182Y-11664079D02*
X19229706Y-11645031D01*
X19229706Y-11645031D02*
X19239230Y-11616460D01*
X19239230Y-11616460D02*
X19248754Y-11568841D01*
X19248754Y-11568841D02*
X19248754Y-11530746D01*
X19248754Y-11530746D02*
X19239230Y-11483127D01*
X19239230Y-11483127D02*
X19229706Y-11454555D01*
X19229706Y-11454555D02*
X19220182Y-11435508D01*
X19220182Y-11435508D02*
X19201135Y-11406936D01*
X19201135Y-11406936D02*
X19191611Y-11397412D01*
D12*
X12747500Y-11848500D02*
X12797500Y-11798500D01*
X12747500Y-11748500D01*
X12697500Y-11798500D01*
X12747500Y-11848500D01*
D11*
X13163039Y-11889984D02*
X13048753Y-11889984D01*
X13105896Y-11889984D02*
X13105896Y-11689984D01*
X13105896Y-11689984D02*
X13086848Y-11718555D01*
X13086848Y-11718555D02*
X13067801Y-11737603D01*
X13067801Y-11737603D02*
X13048753Y-11747127D01*
X13248753Y-11870936D02*
X13258277Y-11880460D01*
X13258277Y-11880460D02*
X13248753Y-11889984D01*
X13248753Y-11889984D02*
X13239229Y-11880460D01*
X13239229Y-11880460D02*
X13248753Y-11870936D01*
X13248753Y-11870936D02*
X13248753Y-11889984D01*
X13382086Y-11689984D02*
X13401134Y-11689984D01*
X13401134Y-11689984D02*
X13420182Y-11699508D01*
X13420182Y-11699508D02*
X13429705Y-11709031D01*
X13429705Y-11709031D02*
X13439229Y-11728079D01*
X13439229Y-11728079D02*
X13448753Y-11766174D01*
X13448753Y-11766174D02*
X13448753Y-11813793D01*
X13448753Y-11813793D02*
X13439229Y-11851888D01*
X13439229Y-11851888D02*
X13429705Y-11870936D01*
X13429705Y-11870936D02*
X13420182Y-11880460D01*
X13420182Y-11880460D02*
X13401134Y-11889984D01*
X13401134Y-11889984D02*
X13382086Y-11889984D01*
X13382086Y-11889984D02*
X13363039Y-11880460D01*
X13363039Y-11880460D02*
X13353515Y-11870936D01*
X13353515Y-11870936D02*
X13343991Y-11851888D01*
X13343991Y-11851888D02*
X13334467Y-11813793D01*
X13334467Y-11813793D02*
X13334467Y-11766174D01*
X13334467Y-11766174D02*
X13343991Y-11728079D01*
X13343991Y-11728079D02*
X13353515Y-11709031D01*
X13353515Y-11709031D02*
X13363039Y-11699508D01*
X13363039Y-11699508D02*
X13382086Y-11689984D01*
X13572562Y-11689984D02*
X13591610Y-11689984D01*
X13591610Y-11689984D02*
X13610658Y-11699508D01*
X13610658Y-11699508D02*
X13620182Y-11709031D01*
X13620182Y-11709031D02*
X13629705Y-11728079D01*
X13629705Y-11728079D02*
X13639229Y-11766174D01*
X13639229Y-11766174D02*
X13639229Y-11813793D01*
X13639229Y-11813793D02*
X13629705Y-11851888D01*
X13629705Y-11851888D02*
X13620182Y-11870936D01*
X13620182Y-11870936D02*
X13610658Y-11880460D01*
X13610658Y-11880460D02*
X13591610Y-11889984D01*
X13591610Y-11889984D02*
X13572562Y-11889984D01*
X13572562Y-11889984D02*
X13553515Y-11880460D01*
X13553515Y-11880460D02*
X13543991Y-11870936D01*
X13543991Y-11870936D02*
X13534467Y-11851888D01*
X13534467Y-11851888D02*
X13524943Y-11813793D01*
X13524943Y-11813793D02*
X13524943Y-11766174D01*
X13524943Y-11766174D02*
X13534467Y-11728079D01*
X13534467Y-11728079D02*
X13543991Y-11709031D01*
X13543991Y-11709031D02*
X13553515Y-11699508D01*
X13553515Y-11699508D02*
X13572562Y-11689984D01*
X13763039Y-11689984D02*
X13782086Y-11689984D01*
X13782086Y-11689984D02*
X13801134Y-11699508D01*
X13801134Y-11699508D02*
X13810658Y-11709031D01*
X13810658Y-11709031D02*
X13820182Y-11728079D01*
X13820182Y-11728079D02*
X13829705Y-11766174D01*
X13829705Y-11766174D02*
X13829705Y-11813793D01*
X13829705Y-11813793D02*
X13820182Y-11851888D01*
X13820182Y-11851888D02*
X13810658Y-11870936D01*
X13810658Y-11870936D02*
X13801134Y-11880460D01*
X13801134Y-11880460D02*
X13782086Y-11889984D01*
X13782086Y-11889984D02*
X13763039Y-11889984D01*
X13763039Y-11889984D02*
X13743991Y-11880460D01*
X13743991Y-11880460D02*
X13734467Y-11870936D01*
X13734467Y-11870936D02*
X13724943Y-11851888D01*
X13724943Y-11851888D02*
X13715420Y-11813793D01*
X13715420Y-11813793D02*
X13715420Y-11766174D01*
X13715420Y-11766174D02*
X13724943Y-11728079D01*
X13724943Y-11728079D02*
X13734467Y-11709031D01*
X13734467Y-11709031D02*
X13743991Y-11699508D01*
X13743991Y-11699508D02*
X13763039Y-11689984D01*
X13915420Y-11889984D02*
X13915420Y-11756650D01*
X13915420Y-11775698D02*
X13924943Y-11766174D01*
X13924943Y-11766174D02*
X13943991Y-11756650D01*
X13943991Y-11756650D02*
X13972563Y-11756650D01*
X13972563Y-11756650D02*
X13991610Y-11766174D01*
X13991610Y-11766174D02*
X14001134Y-11785222D01*
X14001134Y-11785222D02*
X14001134Y-11889984D01*
X14001134Y-11785222D02*
X14010658Y-11766174D01*
X14010658Y-11766174D02*
X14029705Y-11756650D01*
X14029705Y-11756650D02*
X14058277Y-11756650D01*
X14058277Y-11756650D02*
X14077324Y-11766174D01*
X14077324Y-11766174D02*
X14086848Y-11785222D01*
X14086848Y-11785222D02*
X14086848Y-11889984D01*
X14182086Y-11889984D02*
X14182086Y-11756650D01*
X14182086Y-11775698D02*
X14191610Y-11766174D01*
X14191610Y-11766174D02*
X14210658Y-11756650D01*
X14210658Y-11756650D02*
X14239229Y-11756650D01*
X14239229Y-11756650D02*
X14258277Y-11766174D01*
X14258277Y-11766174D02*
X14267801Y-11785222D01*
X14267801Y-11785222D02*
X14267801Y-11889984D01*
X14267801Y-11785222D02*
X14277324Y-11766174D01*
X14277324Y-11766174D02*
X14296372Y-11756650D01*
X14296372Y-11756650D02*
X14324943Y-11756650D01*
X14324943Y-11756650D02*
X14343991Y-11766174D01*
X14343991Y-11766174D02*
X14353515Y-11785222D01*
X14353515Y-11785222D02*
X14353515Y-11889984D01*
X14743991Y-11680460D02*
X14572563Y-11937603D01*
X15001134Y-11689984D02*
X15020182Y-11689984D01*
X15020182Y-11689984D02*
X15039229Y-11699508D01*
X15039229Y-11699508D02*
X15048753Y-11709031D01*
X15048753Y-11709031D02*
X15058277Y-11728079D01*
X15058277Y-11728079D02*
X15067801Y-11766174D01*
X15067801Y-11766174D02*
X15067801Y-11813793D01*
X15067801Y-11813793D02*
X15058277Y-11851888D01*
X15058277Y-11851888D02*
X15048753Y-11870936D01*
X15048753Y-11870936D02*
X15039229Y-11880460D01*
X15039229Y-11880460D02*
X15020182Y-11889984D01*
X15020182Y-11889984D02*
X15001134Y-11889984D01*
X15001134Y-11889984D02*
X14982086Y-11880460D01*
X14982086Y-11880460D02*
X14972563Y-11870936D01*
X14972563Y-11870936D02*
X14963039Y-11851888D01*
X14963039Y-11851888D02*
X14953515Y-11813793D01*
X14953515Y-11813793D02*
X14953515Y-11766174D01*
X14953515Y-11766174D02*
X14963039Y-11728079D01*
X14963039Y-11728079D02*
X14972563Y-11709031D01*
X14972563Y-11709031D02*
X14982086Y-11699508D01*
X14982086Y-11699508D02*
X15001134Y-11689984D01*
X15153515Y-11870936D02*
X15163039Y-11880460D01*
X15163039Y-11880460D02*
X15153515Y-11889984D01*
X15153515Y-11889984D02*
X15143991Y-11880460D01*
X15143991Y-11880460D02*
X15153515Y-11870936D01*
X15153515Y-11870936D02*
X15153515Y-11889984D01*
X15286848Y-11689984D02*
X15305896Y-11689984D01*
X15305896Y-11689984D02*
X15324944Y-11699508D01*
X15324944Y-11699508D02*
X15334467Y-11709031D01*
X15334467Y-11709031D02*
X15343991Y-11728079D01*
X15343991Y-11728079D02*
X15353515Y-11766174D01*
X15353515Y-11766174D02*
X15353515Y-11813793D01*
X15353515Y-11813793D02*
X15343991Y-11851888D01*
X15343991Y-11851888D02*
X15334467Y-11870936D01*
X15334467Y-11870936D02*
X15324944Y-11880460D01*
X15324944Y-11880460D02*
X15305896Y-11889984D01*
X15305896Y-11889984D02*
X15286848Y-11889984D01*
X15286848Y-11889984D02*
X15267801Y-11880460D01*
X15267801Y-11880460D02*
X15258277Y-11870936D01*
X15258277Y-11870936D02*
X15248753Y-11851888D01*
X15248753Y-11851888D02*
X15239229Y-11813793D01*
X15239229Y-11813793D02*
X15239229Y-11766174D01*
X15239229Y-11766174D02*
X15248753Y-11728079D01*
X15248753Y-11728079D02*
X15258277Y-11709031D01*
X15258277Y-11709031D02*
X15267801Y-11699508D01*
X15267801Y-11699508D02*
X15286848Y-11689984D01*
X15420182Y-11689984D02*
X15543991Y-11689984D01*
X15543991Y-11689984D02*
X15477325Y-11766174D01*
X15477325Y-11766174D02*
X15505896Y-11766174D01*
X15505896Y-11766174D02*
X15524944Y-11775698D01*
X15524944Y-11775698D02*
X15534467Y-11785222D01*
X15534467Y-11785222D02*
X15543991Y-11804269D01*
X15543991Y-11804269D02*
X15543991Y-11851888D01*
X15543991Y-11851888D02*
X15534467Y-11870936D01*
X15534467Y-11870936D02*
X15524944Y-11880460D01*
X15524944Y-11880460D02*
X15505896Y-11889984D01*
X15505896Y-11889984D02*
X15448753Y-11889984D01*
X15448753Y-11889984D02*
X15429706Y-11880460D01*
X15429706Y-11880460D02*
X15420182Y-11870936D01*
X15639229Y-11889984D02*
X15677325Y-11889984D01*
X15677325Y-11889984D02*
X15696372Y-11880460D01*
X15696372Y-11880460D02*
X15705896Y-11870936D01*
X15705896Y-11870936D02*
X15724944Y-11842365D01*
X15724944Y-11842365D02*
X15734467Y-11804269D01*
X15734467Y-11804269D02*
X15734467Y-11728079D01*
X15734467Y-11728079D02*
X15724944Y-11709031D01*
X15724944Y-11709031D02*
X15715420Y-11699508D01*
X15715420Y-11699508D02*
X15696372Y-11689984D01*
X15696372Y-11689984D02*
X15658277Y-11689984D01*
X15658277Y-11689984D02*
X15639229Y-11699508D01*
X15639229Y-11699508D02*
X15629706Y-11709031D01*
X15629706Y-11709031D02*
X15620182Y-11728079D01*
X15620182Y-11728079D02*
X15620182Y-11775698D01*
X15620182Y-11775698D02*
X15629706Y-11794746D01*
X15629706Y-11794746D02*
X15639229Y-11804269D01*
X15639229Y-11804269D02*
X15658277Y-11813793D01*
X15658277Y-11813793D02*
X15696372Y-11813793D01*
X15696372Y-11813793D02*
X15715420Y-11804269D01*
X15715420Y-11804269D02*
X15724944Y-11794746D01*
X15724944Y-11794746D02*
X15734467Y-11775698D01*
X15905896Y-11756650D02*
X15905896Y-11889984D01*
X15858277Y-11680460D02*
X15810658Y-11823317D01*
X15810658Y-11823317D02*
X15934467Y-11823317D01*
X16001134Y-11689984D02*
X16001134Y-11728079D01*
X16077325Y-11689984D02*
X16077325Y-11728079D01*
X16372563Y-11966174D02*
X16363039Y-11956650D01*
X16363039Y-11956650D02*
X16343991Y-11928079D01*
X16343991Y-11928079D02*
X16334468Y-11909031D01*
X16334468Y-11909031D02*
X16324944Y-11880460D01*
X16324944Y-11880460D02*
X16315420Y-11832841D01*
X16315420Y-11832841D02*
X16315420Y-11794746D01*
X16315420Y-11794746D02*
X16324944Y-11747127D01*
X16324944Y-11747127D02*
X16334468Y-11718555D01*
X16334468Y-11718555D02*
X16343991Y-11699508D01*
X16343991Y-11699508D02*
X16363039Y-11670936D01*
X16363039Y-11670936D02*
X16372563Y-11661412D01*
X16553515Y-11889984D02*
X16439229Y-11889984D01*
X16496372Y-11889984D02*
X16496372Y-11689984D01*
X16496372Y-11689984D02*
X16477325Y-11718555D01*
X16477325Y-11718555D02*
X16458277Y-11737603D01*
X16458277Y-11737603D02*
X16439229Y-11747127D01*
X16677325Y-11689984D02*
X16696372Y-11689984D01*
X16696372Y-11689984D02*
X16715420Y-11699508D01*
X16715420Y-11699508D02*
X16724944Y-11709031D01*
X16724944Y-11709031D02*
X16734468Y-11728079D01*
X16734468Y-11728079D02*
X16743991Y-11766174D01*
X16743991Y-11766174D02*
X16743991Y-11813793D01*
X16743991Y-11813793D02*
X16734468Y-11851888D01*
X16734468Y-11851888D02*
X16724944Y-11870936D01*
X16724944Y-11870936D02*
X16715420Y-11880460D01*
X16715420Y-11880460D02*
X16696372Y-11889984D01*
X16696372Y-11889984D02*
X16677325Y-11889984D01*
X16677325Y-11889984D02*
X16658277Y-11880460D01*
X16658277Y-11880460D02*
X16648753Y-11870936D01*
X16648753Y-11870936D02*
X16639229Y-11851888D01*
X16639229Y-11851888D02*
X16629706Y-11813793D01*
X16629706Y-11813793D02*
X16629706Y-11766174D01*
X16629706Y-11766174D02*
X16639229Y-11728079D01*
X16639229Y-11728079D02*
X16648753Y-11709031D01*
X16648753Y-11709031D02*
X16658277Y-11699508D01*
X16658277Y-11699508D02*
X16677325Y-11689984D01*
X16982087Y-11889984D02*
X16982087Y-11689984D01*
X17067801Y-11889984D02*
X17067801Y-11785222D01*
X17067801Y-11785222D02*
X17058277Y-11766174D01*
X17058277Y-11766174D02*
X17039230Y-11756650D01*
X17039230Y-11756650D02*
X17010658Y-11756650D01*
X17010658Y-11756650D02*
X16991611Y-11766174D01*
X16991611Y-11766174D02*
X16982087Y-11775698D01*
X17191611Y-11889984D02*
X17172563Y-11880460D01*
X17172563Y-11880460D02*
X17163039Y-11870936D01*
X17163039Y-11870936D02*
X17153515Y-11851888D01*
X17153515Y-11851888D02*
X17153515Y-11794746D01*
X17153515Y-11794746D02*
X17163039Y-11775698D01*
X17163039Y-11775698D02*
X17172563Y-11766174D01*
X17172563Y-11766174D02*
X17191611Y-11756650D01*
X17191611Y-11756650D02*
X17220182Y-11756650D01*
X17220182Y-11756650D02*
X17239230Y-11766174D01*
X17239230Y-11766174D02*
X17248753Y-11775698D01*
X17248753Y-11775698D02*
X17258277Y-11794746D01*
X17258277Y-11794746D02*
X17258277Y-11851888D01*
X17258277Y-11851888D02*
X17248753Y-11870936D01*
X17248753Y-11870936D02*
X17239230Y-11880460D01*
X17239230Y-11880460D02*
X17220182Y-11889984D01*
X17220182Y-11889984D02*
X17191611Y-11889984D01*
X17372563Y-11889984D02*
X17353515Y-11880460D01*
X17353515Y-11880460D02*
X17343992Y-11861412D01*
X17343992Y-11861412D02*
X17343992Y-11689984D01*
X17524944Y-11880460D02*
X17505896Y-11889984D01*
X17505896Y-11889984D02*
X17467801Y-11889984D01*
X17467801Y-11889984D02*
X17448753Y-11880460D01*
X17448753Y-11880460D02*
X17439230Y-11861412D01*
X17439230Y-11861412D02*
X17439230Y-11785222D01*
X17439230Y-11785222D02*
X17448753Y-11766174D01*
X17448753Y-11766174D02*
X17467801Y-11756650D01*
X17467801Y-11756650D02*
X17505896Y-11756650D01*
X17505896Y-11756650D02*
X17524944Y-11766174D01*
X17524944Y-11766174D02*
X17534468Y-11785222D01*
X17534468Y-11785222D02*
X17534468Y-11804269D01*
X17534468Y-11804269D02*
X17439230Y-11823317D01*
X17610658Y-11880460D02*
X17629706Y-11889984D01*
X17629706Y-11889984D02*
X17667801Y-11889984D01*
X17667801Y-11889984D02*
X17686849Y-11880460D01*
X17686849Y-11880460D02*
X17696373Y-11861412D01*
X17696373Y-11861412D02*
X17696373Y-11851888D01*
X17696373Y-11851888D02*
X17686849Y-11832841D01*
X17686849Y-11832841D02*
X17667801Y-11823317D01*
X17667801Y-11823317D02*
X17639230Y-11823317D01*
X17639230Y-11823317D02*
X17620182Y-11813793D01*
X17620182Y-11813793D02*
X17610658Y-11794746D01*
X17610658Y-11794746D02*
X17610658Y-11785222D01*
X17610658Y-11785222D02*
X17620182Y-11766174D01*
X17620182Y-11766174D02*
X17639230Y-11756650D01*
X17639230Y-11756650D02*
X17667801Y-11756650D01*
X17667801Y-11756650D02*
X17686849Y-11766174D01*
X17763039Y-11966174D02*
X17772563Y-11956650D01*
X17772563Y-11956650D02*
X17791611Y-11928079D01*
X17791611Y-11928079D02*
X17801134Y-11909031D01*
X17801134Y-11909031D02*
X17810658Y-11880460D01*
X17810658Y-11880460D02*
X17820182Y-11832841D01*
X17820182Y-11832841D02*
X17820182Y-11794746D01*
X17820182Y-11794746D02*
X17810658Y-11747127D01*
X17810658Y-11747127D02*
X17801134Y-11718555D01*
X17801134Y-11718555D02*
X17791611Y-11699508D01*
X17791611Y-11699508D02*
X17772563Y-11670936D01*
X17772563Y-11670936D02*
X17763039Y-11661412D01*
M02*
