%TF.GenerationSoftware,KiCad,Pcbnew,8.0.7*%
%TF.CreationDate,2024-12-24T16:41:45+01:00*%
%TF.ProjectId,USB2UART_PROG,55534232-5541-4525-945f-50524f472e6b,rev?*%
%TF.SameCoordinates,Original*%
%TF.FileFunction,Copper,L1,Top*%
%TF.FilePolarity,Positive*%
%FSLAX46Y46*%
G04 Gerber Fmt 4.6, Leading zero omitted, Abs format (unit mm)*
G04 Created by KiCad (PCBNEW 8.0.7) date 2024-12-24 16:41:45*
%MOMM*%
%LPD*%
G01*
G04 APERTURE LIST*
G04 Aperture macros list*
%AMRoundRect*
0 Rectangle with rounded corners*
0 $1 Rounding radius*
0 $2 $3 $4 $5 $6 $7 $8 $9 X,Y pos of 4 corners*
0 Add a 4 corners polygon primitive as box body*
4,1,4,$2,$3,$4,$5,$6,$7,$8,$9,$2,$3,0*
0 Add four circle primitives for the rounded corners*
1,1,$1+$1,$2,$3*
1,1,$1+$1,$4,$5*
1,1,$1+$1,$6,$7*
1,1,$1+$1,$8,$9*
0 Add four rect primitives between the rounded corners*
20,1,$1+$1,$2,$3,$4,$5,0*
20,1,$1+$1,$4,$5,$6,$7,0*
20,1,$1+$1,$6,$7,$8,$9,0*
20,1,$1+$1,$8,$9,$2,$3,0*%
G04 Aperture macros list end*
%TA.AperFunction,SMDPad,CuDef*%
%ADD10RoundRect,0.225000X0.250000X-0.225000X0.250000X0.225000X-0.250000X0.225000X-0.250000X-0.225000X0*%
%TD*%
%TA.AperFunction,SMDPad,CuDef*%
%ADD11RoundRect,0.225000X0.225000X0.250000X-0.225000X0.250000X-0.225000X-0.250000X0.225000X-0.250000X0*%
%TD*%
%TA.AperFunction,SMDPad,CuDef*%
%ADD12RoundRect,0.218750X0.218750X0.256250X-0.218750X0.256250X-0.218750X-0.256250X0.218750X-0.256250X0*%
%TD*%
%TA.AperFunction,SMDPad,CuDef*%
%ADD13RoundRect,0.250000X0.650000X-0.325000X0.650000X0.325000X-0.650000X0.325000X-0.650000X-0.325000X0*%
%TD*%
%TA.AperFunction,SMDPad,CuDef*%
%ADD14RoundRect,0.225000X-0.250000X0.225000X-0.250000X-0.225000X0.250000X-0.225000X0.250000X0.225000X0*%
%TD*%
%TA.AperFunction,SMDPad,CuDef*%
%ADD15RoundRect,0.093750X0.093750X-0.156250X0.093750X0.156250X-0.093750X0.156250X-0.093750X-0.156250X0*%
%TD*%
%TA.AperFunction,SMDPad,CuDef*%
%ADD16RoundRect,0.075000X0.075000X-0.250000X0.075000X0.250000X-0.075000X0.250000X-0.075000X-0.250000X0*%
%TD*%
%TA.AperFunction,SMDPad,CuDef*%
%ADD17RoundRect,0.218750X0.381250X-0.218750X0.381250X0.218750X-0.381250X0.218750X-0.381250X-0.218750X0*%
%TD*%
%TA.AperFunction,SMDPad,CuDef*%
%ADD18RoundRect,0.200000X-0.200000X-0.275000X0.200000X-0.275000X0.200000X0.275000X-0.200000X0.275000X0*%
%TD*%
%TA.AperFunction,SMDPad,CuDef*%
%ADD19RoundRect,0.200000X0.275000X-0.200000X0.275000X0.200000X-0.275000X0.200000X-0.275000X-0.200000X0*%
%TD*%
%TA.AperFunction,ComponentPad*%
%ADD20R,1.700000X1.700000*%
%TD*%
%TA.AperFunction,ComponentPad*%
%ADD21O,1.700000X1.700000*%
%TD*%
%TA.AperFunction,SMDPad,CuDef*%
%ADD22RoundRect,0.200000X-0.275000X0.200000X-0.275000X-0.200000X0.275000X-0.200000X0.275000X0.200000X0*%
%TD*%
%TA.AperFunction,SMDPad,CuDef*%
%ADD23RoundRect,0.225000X-0.225000X-0.250000X0.225000X-0.250000X0.225000X0.250000X-0.225000X0.250000X0*%
%TD*%
%TA.AperFunction,SMDPad,CuDef*%
%ADD24RoundRect,0.218750X-0.218750X-0.256250X0.218750X-0.256250X0.218750X0.256250X-0.218750X0.256250X0*%
%TD*%
%TA.AperFunction,SMDPad,CuDef*%
%ADD25R,0.600000X1.150000*%
%TD*%
%TA.AperFunction,SMDPad,CuDef*%
%ADD26R,0.300000X1.150000*%
%TD*%
%TA.AperFunction,ComponentPad*%
%ADD27O,1.000000X2.100000*%
%TD*%
%TA.AperFunction,ComponentPad*%
%ADD28O,1.000000X1.800000*%
%TD*%
%TA.AperFunction,SMDPad,CuDef*%
%ADD29R,0.950000X2.150000*%
%TD*%
%TA.AperFunction,SMDPad,CuDef*%
%ADD30R,3.250000X2.150000*%
%TD*%
%TA.AperFunction,SMDPad,CuDef*%
%ADD31RoundRect,0.080000X-0.325000X-0.080000X0.325000X-0.080000X0.325000X0.080000X-0.325000X0.080000X0*%
%TD*%
%TA.AperFunction,SMDPad,CuDef*%
%ADD32RoundRect,0.080000X-0.080000X-0.325000X0.080000X-0.325000X0.080000X0.325000X-0.080000X0.325000X0*%
%TD*%
%TA.AperFunction,SMDPad,CuDef*%
%ADD33R,2.100000X2.100000*%
%TD*%
%TA.AperFunction,SMDPad,CuDef*%
%ADD34R,1.050000X0.650000*%
%TD*%
%TA.AperFunction,ViaPad*%
%ADD35C,0.500000*%
%TD*%
%TA.AperFunction,ViaPad*%
%ADD36C,0.800000*%
%TD*%
%TA.AperFunction,ViaPad*%
%ADD37C,0.600000*%
%TD*%
%TA.AperFunction,Conductor*%
%ADD38C,0.500000*%
%TD*%
%TA.AperFunction,Conductor*%
%ADD39C,0.200000*%
%TD*%
%TA.AperFunction,Conductor*%
%ADD40C,0.381000*%
%TD*%
%TA.AperFunction,Conductor*%
%ADD41C,0.250000*%
%TD*%
%TA.AperFunction,Conductor*%
%ADD42C,0.155000*%
%TD*%
%TA.AperFunction,Conductor*%
%ADD43C,0.150000*%
%TD*%
G04 APERTURE END LIST*
D10*
%TO.P,C11,1*%
%TO.N,+3V3*%
X134924800Y-81483200D03*
%TO.P,C11,2*%
%TO.N,GND*%
X134924800Y-79933200D03*
%TD*%
D11*
%TO.P,C5,1*%
%TO.N,/VBUS*%
X132575000Y-94200000D03*
%TO.P,C5,2*%
%TO.N,GND*%
X131025000Y-94200000D03*
%TD*%
D12*
%TO.P,D4,1,K*%
%TO.N,GND*%
X144602300Y-74422000D03*
%TO.P,D4,2,A*%
%TO.N,Net-(D4-A)*%
X143027300Y-74422000D03*
%TD*%
D13*
%TO.P,C1,1*%
%TO.N,Net-(J1-SHELL_GND)*%
X144800000Y-94275000D03*
%TO.P,C1,2*%
%TO.N,GND*%
X144800000Y-91325000D03*
%TD*%
D14*
%TO.P,C12,1*%
%TO.N,+3V3*%
X129082800Y-80047800D03*
%TO.P,C12,2*%
%TO.N,GND*%
X129082800Y-81597800D03*
%TD*%
D15*
%TO.P,U2,1,I/O1*%
%TO.N,/D_P*%
X137962500Y-91650000D03*
D16*
%TO.P,U2,2,GND*%
%TO.N,GND*%
X138500000Y-91725000D03*
D15*
%TO.P,U2,3,I/O2*%
%TO.N,/D_N*%
X139037500Y-91650000D03*
%TO.P,U2,4,I/O2*%
%TO.N,/USB_N*%
X139037500Y-89950000D03*
D16*
%TO.P,U2,5,VBUS*%
%TO.N,+5V*%
X138500000Y-89875000D03*
D15*
%TO.P,U2,6,I/O1*%
%TO.N,/USB_P*%
X137962500Y-89950000D03*
%TD*%
D17*
%TO.P,FB1,1*%
%TO.N,/VBUS*%
X132400000Y-92662500D03*
%TO.P,FB1,2*%
%TO.N,+5V*%
X132400000Y-90537500D03*
%TD*%
D18*
%TO.P,R11,1*%
%TO.N,Net-(U1-CBUS3)*%
X142583400Y-83972400D03*
%TO.P,R11,2*%
%TO.N,Net-(D5-A)*%
X144233400Y-83972400D03*
%TD*%
D12*
%TO.P,D2,1,K*%
%TO.N,GND*%
X144602300Y-76098400D03*
%TO.P,D2,2,A*%
%TO.N,Net-(D2-A)*%
X143027300Y-76098400D03*
%TD*%
D14*
%TO.P,C9,1*%
%TO.N,+5V*%
X135915200Y-89649000D03*
%TO.P,C9,2*%
%TO.N,GND*%
X135915200Y-91199000D03*
%TD*%
D19*
%TO.P,R10,1*%
%TO.N,Net-(U1-CBUS2)*%
X138226800Y-76923400D03*
%TO.P,R10,2*%
%TO.N,Net-(D4-A)*%
X138226800Y-75273400D03*
%TD*%
D20*
%TO.P,J2,1,Pin_1*%
%TO.N,+5V*%
X141849000Y-69850000D03*
D21*
%TO.P,J2,2,Pin_2*%
%TO.N,/RXD*%
X139309000Y-69850000D03*
%TO.P,J2,3,Pin_3*%
%TO.N,/TXD*%
X136769000Y-69850000D03*
%TO.P,J2,4,Pin_4*%
%TO.N,GND*%
X134229000Y-69850000D03*
%TD*%
D11*
%TO.P,C6,1*%
%TO.N,/USB_P*%
X137775000Y-87837500D03*
%TO.P,C6,2*%
%TO.N,GND*%
X136225000Y-87837500D03*
%TD*%
D18*
%TO.P,R8,1*%
%TO.N,+3V3*%
X144463000Y-64770000D03*
%TO.P,R8,2*%
%TO.N,Net-(J3-Pin_1)*%
X146113000Y-64770000D03*
%TD*%
D12*
%TO.P,D1,1,K*%
%TO.N,GND*%
X130886300Y-96520000D03*
%TO.P,D1,2,A*%
%TO.N,Net-(D1-A)*%
X129311300Y-96520000D03*
%TD*%
D22*
%TO.P,R5,1*%
%TO.N,+5V*%
X130556000Y-90501200D03*
%TO.P,R5,2*%
%TO.N,Net-(D1-A)*%
X130556000Y-92151200D03*
%TD*%
D23*
%TO.P,C4,1*%
%TO.N,+5V*%
X142100000Y-79100000D03*
%TO.P,C4,2*%
%TO.N,GND*%
X143650000Y-79100000D03*
%TD*%
D24*
%TO.P,D5,1,K*%
%TO.N,GND*%
X142633100Y-85496400D03*
%TO.P,D5,2,A*%
%TO.N,Net-(D5-A)*%
X144208100Y-85496400D03*
%TD*%
D14*
%TO.P,C10,1*%
%TO.N,+5V*%
X134315200Y-89649000D03*
%TO.P,C10,2*%
%TO.N,GND*%
X134315200Y-91199000D03*
%TD*%
D20*
%TO.P,J3,1,Pin_1*%
%TO.N,Net-(J3-Pin_1)*%
X140462000Y-63500000D03*
D21*
%TO.P,J3,2,Pin_2*%
%TO.N,GND*%
X140462000Y-66040000D03*
%TO.P,J3,3,Pin_3*%
%TO.N,+3V3*%
X137922000Y-63500000D03*
%TO.P,J3,4,Pin_4*%
X137922000Y-66040000D03*
%TO.P,J3,5,Pin_5*%
%TO.N,/TXD*%
X135382000Y-63500000D03*
%TO.P,J3,6,Pin_6*%
%TO.N,/RXD*%
X135382000Y-66040000D03*
%TD*%
D25*
%TO.P,J1,A1_B12,GND*%
%TO.N,GND*%
X135300000Y-93745000D03*
%TO.P,J1,A4_B9,VBUS*%
%TO.N,/VBUS*%
X136100000Y-93745000D03*
D26*
%TO.P,J1,A5,CC1*%
%TO.N,Net-(J1-CC1)*%
X137250000Y-93745000D03*
%TO.P,J1,A6,DP1*%
%TO.N,/D_P*%
X138250000Y-93745000D03*
%TO.P,J1,A7,DN1*%
%TO.N,/D_N*%
X138750000Y-93745000D03*
%TO.P,J1,A8,SBU1*%
%TO.N,unconnected-(J1-SBU1-PadA8)*%
X139750000Y-93745000D03*
D25*
%TO.P,J1,B1_A12,GND__1*%
%TO.N,GND*%
X141700000Y-93745000D03*
%TO.P,J1,B4_A9,VBUS__1*%
%TO.N,/VBUS*%
X140900000Y-93745000D03*
D26*
%TO.P,J1,B5,CC2*%
%TO.N,Net-(J1-CC2)*%
X140250000Y-93745000D03*
%TO.P,J1,B6,DP2*%
%TO.N,/D_P*%
X139250000Y-93745000D03*
%TO.P,J1,B7,DN2*%
%TO.N,/D_N*%
X137750000Y-93745000D03*
%TO.P,J1,B8,SBU2*%
%TO.N,unconnected-(J1-SBU2-PadB8)*%
X136750000Y-93745000D03*
D27*
%TO.P,J1,SH1,SHELL_GND*%
%TO.N,Net-(J1-SHELL_GND)*%
X134180000Y-94320000D03*
%TO.P,J1,SH2,SHELL_GND__1*%
X142820000Y-94320000D03*
D28*
%TO.P,J1,SH3,SHELL_GND__2*%
X134180000Y-98500000D03*
%TO.P,J1,SH4,SHELL_GND__3*%
X142820000Y-98500000D03*
%TD*%
D12*
%TO.P,D3,1,K*%
%TO.N,GND*%
X130886300Y-98094800D03*
%TO.P,D3,2,A*%
%TO.N,Net-(D3-A)*%
X129311300Y-98094800D03*
%TD*%
D23*
%TO.P,C3,1*%
%TO.N,Net-(U1-3V3OUT)*%
X141950000Y-82300000D03*
%TO.P,C3,2*%
%TO.N,GND*%
X143500000Y-82300000D03*
%TD*%
D14*
%TO.P,C8,1*%
%TO.N,+5V*%
X144475200Y-69366800D03*
%TO.P,C8,2*%
%TO.N,GND*%
X144475200Y-70916800D03*
%TD*%
D23*
%TO.P,C2,1*%
%TO.N,+5V*%
X142125000Y-80700000D03*
%TO.P,C2,2*%
%TO.N,GND*%
X143675000Y-80700000D03*
%TD*%
D29*
%TO.P,U3,1,GND*%
%TO.N,GND*%
X129900000Y-87300000D03*
%TO.P,U3,2,OUT_2*%
%TO.N,+3V3*%
X132200000Y-87300000D03*
%TO.P,U3,3,IN*%
%TO.N,+5V*%
X134500000Y-87300000D03*
D30*
%TO.P,U3,4,OUT_4*%
%TO.N,+3V3*%
X132200000Y-81500000D03*
%TD*%
D31*
%TO.P,U1,1,VCCIO*%
%TO.N,Net-(U1-3V3OUT)*%
X136550000Y-79412500D03*
%TO.P,U1,2,RXD*%
%TO.N,/RXD*%
X136550000Y-80062500D03*
%TO.P,U1,3,GND*%
%TO.N,GND*%
X136550000Y-80712500D03*
%TO.P,U1,4,~{CTS}*%
%TO.N,unconnected-(U1-~{CTS}-Pad4)*%
X136550000Y-81362500D03*
D32*
%TO.P,U1,5,CBUS2*%
%TO.N,Net-(U1-CBUS2)*%
X137525000Y-82337500D03*
%TO.P,U1,6,USBDP*%
%TO.N,/USB2_P*%
X138175000Y-82337500D03*
%TO.P,U1,7,USBDM*%
%TO.N,/USB2_N*%
X138825000Y-82337500D03*
%TO.P,U1,8,3V3OUT*%
%TO.N,Net-(U1-3V3OUT)*%
X139475000Y-82337500D03*
D31*
%TO.P,U1,9,~{RESET}*%
X140450000Y-81362500D03*
%TO.P,U1,10,VCC*%
%TO.N,+5V*%
X140450000Y-80712500D03*
%TO.P,U1,11,CBUS1*%
%TO.N,Net-(U1-CBUS1)*%
X140450000Y-80062500D03*
%TO.P,U1,12,CBUS0*%
%TO.N,unconnected-(U1-CBUS0-Pad12)*%
X140450000Y-79412500D03*
D32*
%TO.P,U1,13,GND__1*%
%TO.N,GND*%
X139475000Y-78437500D03*
%TO.P,U1,14,CBUS3*%
%TO.N,Net-(U1-CBUS3)*%
X138825000Y-78437500D03*
%TO.P,U1,15,TXD*%
%TO.N,/TXD*%
X138175000Y-78437500D03*
%TO.P,U1,16,~{RTS}*%
%TO.N,unconnected-(U1-~{RTS}-Pad16)*%
X137525000Y-78437500D03*
D33*
%TO.P,U1,17,GND__2*%
%TO.N,GND*%
X138500000Y-80387500D03*
%TD*%
D18*
%TO.P,R7,1*%
%TO.N,+5V*%
X144463000Y-66421000D03*
%TO.P,R7,2*%
%TO.N,Net-(J3-Pin_1)*%
X146113000Y-66421000D03*
%TD*%
D19*
%TO.P,R6,1*%
%TO.N,Net-(U1-CBUS1)*%
X139801600Y-76911200D03*
%TO.P,R6,2*%
%TO.N,Net-(D2-A)*%
X139801600Y-75261200D03*
%TD*%
D34*
%TO.P,SW2,1*%
%TO.N,+3V3*%
X133240600Y-78545000D03*
%TO.P,SW2,2*%
X129090600Y-78545000D03*
%TO.P,SW2,3*%
%TO.N,GND*%
X133240600Y-76395000D03*
%TO.P,SW2,4*%
X129090600Y-76395000D03*
%TD*%
%TO.P,SW1,1*%
%TO.N,+3V3*%
X129074500Y-72585000D03*
%TO.P,SW1,2*%
X133224500Y-72585000D03*
%TO.P,SW1,3*%
%TO.N,GND*%
X129074500Y-74735000D03*
%TO.P,SW1,4*%
X133224500Y-74735000D03*
%TD*%
D23*
%TO.P,C7,1*%
%TO.N,/USB_N*%
X139225000Y-87837500D03*
%TO.P,C7,2*%
%TO.N,GND*%
X140775000Y-87837500D03*
%TD*%
D22*
%TO.P,R1,1*%
%TO.N,Net-(J1-CC2)*%
X144400000Y-96450000D03*
%TO.P,R1,2*%
%TO.N,GND*%
X144400000Y-98100000D03*
%TD*%
D19*
%TO.P,R3,1*%
%TO.N,/USB_P*%
X137750000Y-86162500D03*
%TO.P,R3,2*%
%TO.N,/USB2_P*%
X137750000Y-84512500D03*
%TD*%
D23*
%TO.P,C13,1*%
%TO.N,+3V3*%
X129056800Y-70967600D03*
%TO.P,C13,2*%
%TO.N,GND*%
X130606800Y-70967600D03*
%TD*%
D19*
%TO.P,R4,1*%
%TO.N,/USB_N*%
X139250000Y-86162500D03*
%TO.P,R4,2*%
%TO.N,/USB2_N*%
X139250000Y-84512500D03*
%TD*%
D22*
%TO.P,R9,1*%
%TO.N,+3V3*%
X128981200Y-90513400D03*
%TO.P,R9,2*%
%TO.N,Net-(D3-A)*%
X128981200Y-92163400D03*
%TD*%
%TO.P,R2,1*%
%TO.N,Net-(J1-CC1)*%
X132400000Y-96475000D03*
%TO.P,R2,2*%
%TO.N,GND*%
X132400000Y-98125000D03*
%TD*%
D35*
%TO.N,GND*%
X144576800Y-79095600D03*
X145288000Y-70916800D03*
X144576800Y-80670400D03*
D36*
X138500000Y-80387500D03*
D35*
X143560800Y-91338400D03*
X136702800Y-91186000D03*
D36*
X129082800Y-77368400D03*
D35*
X145288000Y-98094800D03*
D36*
X129895600Y-85648800D03*
X134924800Y-79095600D03*
D35*
X138500000Y-90800000D03*
X129082800Y-82346800D03*
X140157200Y-78435200D03*
D36*
X129082800Y-73914000D03*
D35*
X130962400Y-95351600D03*
X136194800Y-88646000D03*
X132384800Y-99161600D03*
X141732000Y-92760800D03*
X141782800Y-85496400D03*
X140766800Y-88595200D03*
X134721600Y-92952800D03*
X130860800Y-99110800D03*
X144526000Y-82245200D03*
%TO.N,+5V*%
X138500000Y-89100000D03*
D36*
X130505200Y-89306400D03*
X133451600Y-87782400D03*
D35*
X142087600Y-78232000D03*
D36*
X133451600Y-86664800D03*
D35*
%TO.N,Net-(U1-3V3OUT)*%
X140500000Y-82300000D03*
X136500000Y-78800000D03*
%TO.N,/VBUS*%
X136100000Y-92700000D03*
X140900000Y-92700000D03*
D36*
%TO.N,+3V3*%
X133146800Y-77774800D03*
X132181600Y-85750400D03*
D35*
X142087600Y-64770000D03*
D36*
X132200000Y-83362800D03*
X133248400Y-73456800D03*
D37*
%TO.N,/RXD*%
X137346500Y-72390000D03*
X136191500Y-72390000D03*
D35*
%TO.N,Net-(U1-CBUS2)*%
X136194800Y-82346800D03*
X137296500Y-76911200D03*
%TO.N,Net-(U1-CBUS3)*%
X138836400Y-77724000D03*
X141376400Y-83667600D03*
%TO.N,/D_P*%
X138250000Y-95200000D03*
X139750000Y-95250000D03*
%TD*%
D38*
%TO.N,GND*%
X133111400Y-70967600D02*
X134229000Y-69850000D01*
D39*
X140154900Y-78437500D02*
X140157200Y-78435200D01*
D40*
X136689800Y-91199000D02*
X136702800Y-91186000D01*
X135915200Y-91199000D02*
X136689800Y-91199000D01*
X141700000Y-93745000D02*
X141700000Y-92792800D01*
X144475200Y-70916800D02*
X145288000Y-70916800D01*
X134315200Y-91199000D02*
X135915200Y-91199000D01*
X135300000Y-93531200D02*
X134721600Y-92952800D01*
D38*
X129082800Y-76402800D02*
X129082800Y-77368400D01*
D39*
X138500000Y-91725000D02*
X138500000Y-90800000D01*
D40*
X136225000Y-87837500D02*
X136225000Y-88615800D01*
X140775000Y-87837500D02*
X140775000Y-88587000D01*
D38*
X129074500Y-73922300D02*
X129082800Y-73914000D01*
X129900000Y-85653200D02*
X129895600Y-85648800D01*
X129074500Y-74735000D02*
X133224500Y-74735000D01*
X143574200Y-91325000D02*
X143560800Y-91338400D01*
D40*
X142633100Y-85496400D02*
X141782800Y-85496400D01*
D38*
X144800000Y-91325000D02*
X143574200Y-91325000D01*
D39*
X139475000Y-79412500D02*
X138500000Y-80387500D01*
D40*
X144602300Y-74422000D02*
X144602300Y-76098400D01*
X144602300Y-79070100D02*
X144576800Y-79095600D01*
X140775000Y-88587000D02*
X140766800Y-88595200D01*
D39*
X139475000Y-78437500D02*
X140154900Y-78437500D01*
D38*
X134924800Y-79933200D02*
X134924800Y-79095600D01*
X129074500Y-74735000D02*
X129074500Y-73922300D01*
D40*
X144602300Y-76098400D02*
X144602300Y-79070100D01*
D41*
X136550000Y-80712500D02*
X138175000Y-80712500D01*
D38*
X129090600Y-76395000D02*
X129082800Y-76402800D01*
X129082800Y-81597800D02*
X129082800Y-82346800D01*
X129900000Y-87300000D02*
X129900000Y-85653200D01*
D41*
X138175000Y-80712500D02*
X138500000Y-80387500D01*
D40*
X145282800Y-98100000D02*
X145288000Y-98094800D01*
X144400000Y-98100000D02*
X145282800Y-98100000D01*
D39*
X139475000Y-78437500D02*
X139475000Y-79412500D01*
D40*
X136225000Y-88615800D02*
X136194800Y-88646000D01*
X135300000Y-93745000D02*
X135300000Y-93531200D01*
X141700000Y-92792800D02*
X141732000Y-92760800D01*
D38*
X129090600Y-76395000D02*
X133240600Y-76395000D01*
X130606800Y-70967600D02*
X133111400Y-70967600D01*
%TO.N,Net-(J1-SHELL_GND)*%
X142865000Y-94275000D02*
X142820000Y-94320000D01*
X144800000Y-94275000D02*
X142865000Y-94275000D01*
D39*
%TO.N,+5V*%
X138500000Y-89875000D02*
X138500000Y-89100000D01*
D40*
X142100000Y-78244400D02*
X142087600Y-78232000D01*
X144475200Y-69366800D02*
X143485200Y-69366800D01*
X143002000Y-69850000D02*
X141849000Y-69850000D01*
X142100000Y-79100000D02*
X142100000Y-78244400D01*
X144475200Y-66433200D02*
X144463000Y-66421000D01*
D39*
X140462500Y-80700000D02*
X140450000Y-80712500D01*
D40*
X143485200Y-69366800D02*
X143002000Y-69850000D01*
D39*
X142125000Y-79100000D02*
X142125000Y-80700000D01*
X142125000Y-80700000D02*
X140462500Y-80700000D01*
D40*
X144475200Y-69366800D02*
X144475200Y-66433200D01*
D39*
%TO.N,Net-(U1-3V3OUT)*%
X136500000Y-78800000D02*
X136500000Y-79362500D01*
X136500000Y-79362500D02*
X136550000Y-79412500D01*
D38*
%TO.N,/VBUS*%
X136100000Y-93745000D02*
X136100000Y-92700000D01*
X133959600Y-92252800D02*
X133549900Y-92662500D01*
X140900000Y-93745000D02*
X140900000Y-92700000D01*
X133549900Y-92662500D02*
X132400000Y-92662500D01*
X135652800Y-92252800D02*
X133959600Y-92252800D01*
X136100000Y-92700000D02*
X135652800Y-92252800D01*
D39*
%TO.N,/USB_P*%
X137950000Y-88725001D02*
X137775000Y-88550001D01*
X137962500Y-89950000D02*
X137950000Y-89937500D01*
X137750000Y-86237500D02*
X137750000Y-86162500D01*
X137775000Y-87837500D02*
X137775000Y-87812500D01*
X137775000Y-88550001D02*
X137775000Y-87837500D01*
X137950000Y-89937500D02*
X137950000Y-88725001D01*
X138275000Y-87312500D02*
X138275000Y-86762500D01*
X138275000Y-86762500D02*
X137750000Y-86237500D01*
X137775000Y-87812500D02*
X138275000Y-87312500D01*
%TO.N,/USB_N*%
X139050000Y-88725001D02*
X139225000Y-88550001D01*
X139250000Y-86237500D02*
X139250000Y-86162500D01*
X139225000Y-87812500D02*
X138725000Y-87312500D01*
X138725000Y-86762500D02*
X139250000Y-86237500D01*
X138725000Y-87312500D02*
X138725000Y-86762500D01*
X139050000Y-89937500D02*
X139050000Y-88725001D01*
X139225000Y-88550001D02*
X139225000Y-87837500D01*
X139037500Y-89950000D02*
X139050000Y-89937500D01*
X139225000Y-87837500D02*
X139225000Y-87812500D01*
D38*
%TO.N,+3V3*%
X129056800Y-70967600D02*
X129056800Y-72567300D01*
X129090600Y-78545000D02*
X133240600Y-78545000D01*
X132200000Y-81500000D02*
X132200000Y-83362800D01*
X133240600Y-78545000D02*
X133240600Y-77868600D01*
X132216800Y-81483200D02*
X132200000Y-81500000D01*
X132200000Y-87300000D02*
X132200000Y-85768800D01*
D39*
X128981200Y-84124800D02*
X129743200Y-83362800D01*
D38*
X132200000Y-85768800D02*
X132181600Y-85750400D01*
X134924800Y-81483200D02*
X132216800Y-81483200D01*
X129056800Y-72567300D02*
X129074500Y-72585000D01*
X129082800Y-80047800D02*
X129082800Y-78552800D01*
X133224500Y-72585000D02*
X133224500Y-73432900D01*
X132200000Y-85732000D02*
X132181600Y-85750400D01*
D39*
X128981200Y-90513400D02*
X128981200Y-84124800D01*
D38*
X129082800Y-78552800D02*
X129090600Y-78545000D01*
X133240600Y-77868600D02*
X133146800Y-77774800D01*
X133224500Y-73432900D02*
X133248400Y-73456800D01*
X129074500Y-72585000D02*
X133224500Y-72585000D01*
X144463000Y-64770000D02*
X142087600Y-64770000D01*
D39*
X129743200Y-83362800D02*
X132200000Y-83362800D01*
%TO.N,Net-(D1-A)*%
X130556000Y-93014800D02*
X130556000Y-92151200D01*
X130200400Y-93370400D02*
X130556000Y-93014800D01*
X129311300Y-96520000D02*
X129311300Y-93751500D01*
X129311300Y-93751500D02*
X129692400Y-93370400D01*
X129692400Y-93370400D02*
X130200400Y-93370400D01*
%TO.N,Net-(D2-A)*%
X141630400Y-76098400D02*
X143027300Y-76098400D01*
X139801600Y-75261200D02*
X140793200Y-75261200D01*
X140793200Y-75261200D02*
X141630400Y-76098400D01*
%TO.N,Net-(D3-A)*%
X128981200Y-92163400D02*
X128981200Y-93065600D01*
X128981200Y-93065600D02*
X128422400Y-93624400D01*
X128422400Y-97840800D02*
X128676400Y-98094800D01*
X128422400Y-93624400D02*
X128422400Y-97840800D01*
X128676400Y-98094800D02*
X129311300Y-98094800D01*
%TO.N,Net-(D4-A)*%
X138480800Y-74422000D02*
X143027300Y-74422000D01*
X138226800Y-74676000D02*
X138480800Y-74422000D01*
X138226800Y-75273400D02*
X138226800Y-74676000D01*
D40*
%TO.N,Net-(D5-A)*%
X144233400Y-85471100D02*
X144208100Y-85496400D01*
X144233400Y-83972400D02*
X144233400Y-85471100D01*
D39*
%TO.N,Net-(J1-CC2)*%
X140950000Y-96450000D02*
X140500000Y-96000000D01*
X140250000Y-94550000D02*
X140250000Y-93745000D01*
X144400000Y-96450000D02*
X140950000Y-96450000D01*
X140500000Y-96000000D02*
X140500000Y-94800000D01*
X140500000Y-94800000D02*
X140250000Y-94550000D01*
%TO.N,Net-(J1-CC1)*%
X132400000Y-96475000D02*
X136325000Y-96475000D01*
X137250000Y-95550000D02*
X137250000Y-93745000D01*
X136325000Y-96475000D02*
X137250000Y-95550000D01*
D42*
%TO.N,/TXD*%
X138023600Y-77673200D02*
X137058400Y-77673200D01*
X134975600Y-68326000D02*
X134010400Y-67360800D01*
X138175000Y-77824600D02*
X138023600Y-77673200D01*
X136296400Y-68326000D02*
X134975600Y-68326000D01*
X134620000Y-63500000D02*
X135382000Y-63500000D01*
X136769000Y-69850000D02*
X136769000Y-68798600D01*
X134010400Y-64109600D02*
X134620000Y-63500000D01*
X136769000Y-68798600D02*
X136296400Y-68326000D01*
X134010400Y-67360800D02*
X134010400Y-64109600D01*
X137058400Y-77673200D02*
X136769000Y-77383800D01*
X138175000Y-78437500D02*
X138175000Y-77824600D01*
X136769000Y-77383800D02*
X136769000Y-69850000D01*
%TO.N,/RXD*%
X136143300Y-80060800D02*
X136145000Y-80062500D01*
X139309000Y-68493800D02*
X138531600Y-67716400D01*
X135839200Y-67716400D02*
X135382000Y-67259200D01*
X139309000Y-69850000D02*
X139309000Y-68493800D01*
X137346500Y-72390000D02*
X138582400Y-72390000D01*
X136145000Y-80062500D02*
X136550000Y-80062500D01*
X139309000Y-71663400D02*
X139309000Y-69850000D01*
X135737600Y-72843900D02*
X135737600Y-79857600D01*
X135940800Y-80060800D02*
X136143300Y-80060800D01*
X138531600Y-67716400D02*
X135839200Y-67716400D01*
X136191500Y-72390000D02*
X135737600Y-72843900D01*
X138582400Y-72390000D02*
X139309000Y-71663400D01*
X135382000Y-67259200D02*
X135382000Y-66040000D01*
X135737600Y-79857600D02*
X135940800Y-80060800D01*
D38*
%TO.N,Net-(J3-Pin_1)*%
X146113000Y-66421000D02*
X146113000Y-64770000D01*
X140462000Y-63500000D02*
X145796000Y-63500000D01*
X145796000Y-63500000D02*
X146113000Y-63817000D01*
X146113000Y-63817000D02*
X146113000Y-64770000D01*
D39*
%TO.N,/USB2_P*%
X137750000Y-84512500D02*
X137750000Y-83799999D01*
X138175000Y-82945001D02*
X138175000Y-82337500D01*
X138275000Y-83274999D02*
X138275000Y-83045001D01*
X137750000Y-83799999D02*
X138275000Y-83274999D01*
X138275000Y-83045001D02*
X138175000Y-82945001D01*
%TO.N,/USB2_N*%
X138725000Y-83045001D02*
X138825000Y-82945001D01*
X138725000Y-83274999D02*
X138725000Y-83045001D01*
X138825000Y-82945001D02*
X138825000Y-82337500D01*
X139250000Y-83799999D02*
X138725000Y-83274999D01*
X139250000Y-84512500D02*
X139250000Y-83799999D01*
%TO.N,Net-(U1-CBUS1)*%
X141224000Y-77317600D02*
X140817600Y-76911200D01*
X141044500Y-80062500D02*
X141224000Y-79883000D01*
X141224000Y-79883000D02*
X141224000Y-77317600D01*
X140450000Y-80062500D02*
X141044500Y-80062500D01*
X140817600Y-76911200D02*
X139801600Y-76911200D01*
D41*
%TO.N,Net-(U1-CBUS2)*%
X136541100Y-82337500D02*
X136204100Y-82337500D01*
D43*
X137296500Y-76911200D02*
X137308700Y-76923400D01*
D41*
X136204100Y-82337500D02*
X136194800Y-82346800D01*
X137525000Y-82337500D02*
X136541100Y-82337500D01*
D43*
X137308700Y-76923400D02*
X138226800Y-76923400D01*
D39*
%TO.N,Net-(U1-CBUS3)*%
X138825000Y-78437500D02*
X138825000Y-77735400D01*
X138825000Y-77735400D02*
X138836400Y-77724000D01*
X142583400Y-83972400D02*
X141681200Y-83972400D01*
X141681200Y-83972400D02*
X141376400Y-83667600D01*
%TO.N,/D_P*%
X137962500Y-92062500D02*
X137962500Y-91650000D01*
X138250000Y-93745000D02*
X138250000Y-95200000D01*
X138250000Y-92350000D02*
X137962500Y-92062500D01*
X139750000Y-95250000D02*
X139250000Y-94750000D01*
X139250000Y-94750000D02*
X139250000Y-93745000D01*
X138250000Y-93745000D02*
X138250000Y-92350000D01*
%TO.N,/D_N*%
X138750000Y-93745000D02*
X138750000Y-92350000D01*
X137700000Y-94972182D02*
X137750000Y-94922182D01*
X137700000Y-95450000D02*
X137700000Y-94972182D01*
X138750000Y-92350000D02*
X139037500Y-92062500D01*
X139037500Y-92062500D02*
X139037500Y-91650000D01*
X138800000Y-95450000D02*
X138500000Y-95750000D01*
X137750000Y-94922182D02*
X137750000Y-93745000D01*
X138000000Y-95750000D02*
X137700000Y-95450000D01*
X138750000Y-93745000D02*
X138800000Y-93795000D01*
X138800000Y-93795000D02*
X138800000Y-95450000D01*
X138500000Y-95750000D02*
X138000000Y-95750000D01*
%TD*%
%TA.AperFunction,Conductor*%
%TO.N,GND*%
G36*
X144840791Y-78606507D02*
G01*
X144876755Y-78656007D01*
X144881600Y-78686600D01*
X144881600Y-82705000D01*
X144862693Y-82763191D01*
X144813193Y-82799155D01*
X144782600Y-82804000D01*
X142999400Y-82804000D01*
X142941209Y-82785093D01*
X142905245Y-82735593D01*
X142900400Y-82705000D01*
X142900400Y-81887000D01*
X142919307Y-81828809D01*
X142968807Y-81792845D01*
X142999400Y-81788000D01*
X143205199Y-81788000D01*
X143205200Y-81788000D01*
X143205200Y-78686600D01*
X143224107Y-78628409D01*
X143273607Y-78592445D01*
X143304200Y-78587600D01*
X144782600Y-78587600D01*
X144840791Y-78606507D01*
G37*
%TD.AperFunction*%
%TD*%
%TA.AperFunction,Conductor*%
%TO.N,/VBUS*%
G36*
X133259191Y-92218907D02*
G01*
X133295155Y-92268407D01*
X133300000Y-92299000D01*
X133300000Y-94801000D01*
X133281093Y-94859191D01*
X133231593Y-94895155D01*
X133201000Y-94900000D01*
X131927300Y-94900000D01*
X131869109Y-94881093D01*
X131833145Y-94831593D01*
X131828300Y-94801000D01*
X131828300Y-93825006D01*
X131828300Y-93825000D01*
X131825770Y-93792856D01*
X131820925Y-93762263D01*
X131820916Y-93762206D01*
X131820153Y-93757718D01*
X131820152Y-93757713D01*
X131807966Y-93729200D01*
X131800000Y-93690293D01*
X131800000Y-92299000D01*
X131818907Y-92240809D01*
X131868407Y-92204845D01*
X131899000Y-92200000D01*
X133201000Y-92200000D01*
X133259191Y-92218907D01*
G37*
%TD.AperFunction*%
%TD*%
%TA.AperFunction,Conductor*%
%TO.N,+5V*%
G36*
X135059191Y-86218907D02*
G01*
X135095155Y-86268407D01*
X135100000Y-86299000D01*
X135100000Y-89300000D01*
X136501000Y-89300000D01*
X136559191Y-89318907D01*
X136595155Y-89368407D01*
X136600000Y-89399000D01*
X136600000Y-90042200D01*
X136581093Y-90100391D01*
X136531593Y-90136355D01*
X136501000Y-90141200D01*
X133300000Y-90141200D01*
X133300000Y-90141201D01*
X133300000Y-90901000D01*
X133281093Y-90959191D01*
X133231593Y-90995155D01*
X133201000Y-91000000D01*
X129922600Y-91000000D01*
X129864409Y-90981093D01*
X129828445Y-90931593D01*
X129823600Y-90901000D01*
X129823600Y-88738600D01*
X129842507Y-88680409D01*
X129892007Y-88644445D01*
X129922600Y-88639600D01*
X132983999Y-88639600D01*
X132984000Y-88639600D01*
X132984000Y-86299000D01*
X133002907Y-86240809D01*
X133052407Y-86204845D01*
X133083000Y-86200000D01*
X135001000Y-86200000D01*
X135059191Y-86218907D01*
G37*
%TD.AperFunction*%
%TD*%
%TA.AperFunction,Conductor*%
%TO.N,GND*%
G36*
X131581991Y-93744907D02*
G01*
X131617955Y-93794407D01*
X131622800Y-93825000D01*
X131622800Y-97688400D01*
X132844600Y-97688400D01*
X132902791Y-97707307D01*
X132938755Y-97756807D01*
X132943600Y-97787400D01*
X132943600Y-99418200D01*
X132924693Y-99476391D01*
X132875193Y-99512355D01*
X132844600Y-99517200D01*
X130451800Y-99517200D01*
X130393609Y-99498293D01*
X130357645Y-99448793D01*
X130352800Y-99418200D01*
X130352800Y-93825000D01*
X130371707Y-93766809D01*
X130421207Y-93730845D01*
X130451800Y-93726000D01*
X131523800Y-93726000D01*
X131581991Y-93744907D01*
G37*
%TD.AperFunction*%
%TD*%
%TA.AperFunction,Conductor*%
%TO.N,Net-(U1-3V3OUT)*%
G36*
X140859191Y-81218907D02*
G01*
X140895155Y-81268407D01*
X140900000Y-81299000D01*
X140900000Y-81800000D01*
X142301000Y-81800000D01*
X142359191Y-81818907D01*
X142395155Y-81868407D01*
X142400000Y-81899000D01*
X142400000Y-82701000D01*
X142381093Y-82759191D01*
X142331593Y-82795155D01*
X142301000Y-82800000D01*
X139399000Y-82800000D01*
X139340809Y-82781093D01*
X139304845Y-82731593D01*
X139300000Y-82701000D01*
X139300000Y-81999000D01*
X139318907Y-81940809D01*
X139368407Y-81904845D01*
X139399000Y-81900000D01*
X139999999Y-81900000D01*
X140000000Y-81900000D01*
X140000000Y-81299000D01*
X140018907Y-81240809D01*
X140068407Y-81204845D01*
X140099000Y-81200000D01*
X140801000Y-81200000D01*
X140859191Y-81218907D01*
G37*
%TD.AperFunction*%
%TD*%
M02*
