%TF.GenerationSoftware,KiCad,Pcbnew,8.0.7*%
%TF.CreationDate,2024-12-24T16:41:42+01:00*%
%TF.ProjectId,USB2UART_PROG,55534232-5541-4525-945f-50524f472e6b,rev?*%
%TF.SameCoordinates,Original*%
%TF.FileFunction,Drillmap*%
%TF.FilePolarity,Positive*%
%FSLAX45Y45*%
G04 Gerber Fmt 4.5, Leading zero omitted, Abs format (unit mm)*
G04 Created by KiCad (PCBNEW 8.0.7) date 2024-12-24 16:41:42*
%MOMM*%
%LPD*%
G01*
G04 APERTURE LIST*
%ADD10C,0.050000*%
%ADD11C,0.200000*%
%ADD12C,0.100000*%
G04 APERTURE END LIST*
D10*
X14400000Y-10100000D02*
X13100000Y-10100000D01*
X14700000Y-6400000D02*
X14700000Y-9800000D01*
X14400000Y-6100000D02*
G75*
G02*
X14700000Y-6400000I0J-300000D01*
G01*
X13100000Y-10100000D02*
G75*
G02*
X12800000Y-9800000I0J300000D01*
G01*
X14700000Y-9800000D02*
G75*
G02*
X14400000Y-10100000I-300000J0D01*
G01*
X13100000Y-6100000D02*
X14400000Y-6100000D01*
X12800000Y-6400000D02*
G75*
G02*
X13100000Y-6100000I300000J0D01*
G01*
X12800000Y-9800000D02*
X12800000Y-6400000D01*
D11*
D12*
X13528500Y-9449500D02*
X13593500Y-9514500D01*
X13593500Y-9449500D02*
X13528500Y-9514500D01*
X14106500Y-9449500D02*
X14171500Y-9514500D01*
X14171500Y-9449500D02*
X14106500Y-9514500D01*
D11*
X13058277Y-10413984D02*
X13058277Y-10213984D01*
X13058277Y-10213984D02*
X13105896Y-10213984D01*
X13105896Y-10213984D02*
X13134467Y-10223508D01*
X13134467Y-10223508D02*
X13153515Y-10242555D01*
X13153515Y-10242555D02*
X13163039Y-10261603D01*
X13163039Y-10261603D02*
X13172562Y-10299698D01*
X13172562Y-10299698D02*
X13172562Y-10328270D01*
X13172562Y-10328270D02*
X13163039Y-10366365D01*
X13163039Y-10366365D02*
X13153515Y-10385412D01*
X13153515Y-10385412D02*
X13134467Y-10404460D01*
X13134467Y-10404460D02*
X13105896Y-10413984D01*
X13105896Y-10413984D02*
X13058277Y-10413984D01*
X13258277Y-10413984D02*
X13258277Y-10280650D01*
X13258277Y-10318746D02*
X13267801Y-10299698D01*
X13267801Y-10299698D02*
X13277324Y-10290174D01*
X13277324Y-10290174D02*
X13296372Y-10280650D01*
X13296372Y-10280650D02*
X13315420Y-10280650D01*
X13382086Y-10413984D02*
X13382086Y-10280650D01*
X13382086Y-10213984D02*
X13372562Y-10223508D01*
X13372562Y-10223508D02*
X13382086Y-10233031D01*
X13382086Y-10233031D02*
X13391610Y-10223508D01*
X13391610Y-10223508D02*
X13382086Y-10213984D01*
X13382086Y-10213984D02*
X13382086Y-10233031D01*
X13505896Y-10413984D02*
X13486848Y-10404460D01*
X13486848Y-10404460D02*
X13477324Y-10385412D01*
X13477324Y-10385412D02*
X13477324Y-10213984D01*
X13610658Y-10413984D02*
X13591610Y-10404460D01*
X13591610Y-10404460D02*
X13582086Y-10385412D01*
X13582086Y-10385412D02*
X13582086Y-10213984D01*
X13839229Y-10413984D02*
X13839229Y-10213984D01*
X13839229Y-10213984D02*
X13905896Y-10356841D01*
X13905896Y-10356841D02*
X13972562Y-10213984D01*
X13972562Y-10213984D02*
X13972562Y-10413984D01*
X14153515Y-10413984D02*
X14153515Y-10309222D01*
X14153515Y-10309222D02*
X14143991Y-10290174D01*
X14143991Y-10290174D02*
X14124943Y-10280650D01*
X14124943Y-10280650D02*
X14086848Y-10280650D01*
X14086848Y-10280650D02*
X14067801Y-10290174D01*
X14153515Y-10404460D02*
X14134467Y-10413984D01*
X14134467Y-10413984D02*
X14086848Y-10413984D01*
X14086848Y-10413984D02*
X14067801Y-10404460D01*
X14067801Y-10404460D02*
X14058277Y-10385412D01*
X14058277Y-10385412D02*
X14058277Y-10366365D01*
X14058277Y-10366365D02*
X14067801Y-10347317D01*
X14067801Y-10347317D02*
X14086848Y-10337793D01*
X14086848Y-10337793D02*
X14134467Y-10337793D01*
X14134467Y-10337793D02*
X14153515Y-10328270D01*
X14248753Y-10280650D02*
X14248753Y-10480650D01*
X14248753Y-10290174D02*
X14267801Y-10280650D01*
X14267801Y-10280650D02*
X14305896Y-10280650D01*
X14305896Y-10280650D02*
X14324943Y-10290174D01*
X14324943Y-10290174D02*
X14334467Y-10299698D01*
X14334467Y-10299698D02*
X14343991Y-10318746D01*
X14343991Y-10318746D02*
X14343991Y-10375889D01*
X14343991Y-10375889D02*
X14334467Y-10394936D01*
X14334467Y-10394936D02*
X14324943Y-10404460D01*
X14324943Y-10404460D02*
X14305896Y-10413984D01*
X14305896Y-10413984D02*
X14267801Y-10413984D01*
X14267801Y-10413984D02*
X14248753Y-10404460D01*
X14429705Y-10394936D02*
X14439229Y-10404460D01*
X14439229Y-10404460D02*
X14429705Y-10413984D01*
X14429705Y-10413984D02*
X14420182Y-10404460D01*
X14420182Y-10404460D02*
X14429705Y-10394936D01*
X14429705Y-10394936D02*
X14429705Y-10413984D01*
X14429705Y-10290174D02*
X14439229Y-10299698D01*
X14439229Y-10299698D02*
X14429705Y-10309222D01*
X14429705Y-10309222D02*
X14420182Y-10299698D01*
X14420182Y-10299698D02*
X14429705Y-10290174D01*
X14429705Y-10290174D02*
X14429705Y-10309222D01*
D12*
X12732500Y-10710000D02*
X12797500Y-10775000D01*
X12797500Y-10710000D02*
X12732500Y-10775000D01*
D11*
X13096372Y-10633984D02*
X13115420Y-10633984D01*
X13115420Y-10633984D02*
X13134467Y-10643508D01*
X13134467Y-10643508D02*
X13143991Y-10653031D01*
X13143991Y-10653031D02*
X13153515Y-10672079D01*
X13153515Y-10672079D02*
X13163039Y-10710174D01*
X13163039Y-10710174D02*
X13163039Y-10757793D01*
X13163039Y-10757793D02*
X13153515Y-10795889D01*
X13153515Y-10795889D02*
X13143991Y-10814936D01*
X13143991Y-10814936D02*
X13134467Y-10824460D01*
X13134467Y-10824460D02*
X13115420Y-10833984D01*
X13115420Y-10833984D02*
X13096372Y-10833984D01*
X13096372Y-10833984D02*
X13077324Y-10824460D01*
X13077324Y-10824460D02*
X13067801Y-10814936D01*
X13067801Y-10814936D02*
X13058277Y-10795889D01*
X13058277Y-10795889D02*
X13048753Y-10757793D01*
X13048753Y-10757793D02*
X13048753Y-10710174D01*
X13048753Y-10710174D02*
X13058277Y-10672079D01*
X13058277Y-10672079D02*
X13067801Y-10653031D01*
X13067801Y-10653031D02*
X13077324Y-10643508D01*
X13077324Y-10643508D02*
X13096372Y-10633984D01*
X13248753Y-10814936D02*
X13258277Y-10824460D01*
X13258277Y-10824460D02*
X13248753Y-10833984D01*
X13248753Y-10833984D02*
X13239229Y-10824460D01*
X13239229Y-10824460D02*
X13248753Y-10814936D01*
X13248753Y-10814936D02*
X13248753Y-10833984D01*
X13429705Y-10633984D02*
X13391610Y-10633984D01*
X13391610Y-10633984D02*
X13372562Y-10643508D01*
X13372562Y-10643508D02*
X13363039Y-10653031D01*
X13363039Y-10653031D02*
X13343991Y-10681603D01*
X13343991Y-10681603D02*
X13334467Y-10719698D01*
X13334467Y-10719698D02*
X13334467Y-10795889D01*
X13334467Y-10795889D02*
X13343991Y-10814936D01*
X13343991Y-10814936D02*
X13353515Y-10824460D01*
X13353515Y-10824460D02*
X13372562Y-10833984D01*
X13372562Y-10833984D02*
X13410658Y-10833984D01*
X13410658Y-10833984D02*
X13429705Y-10824460D01*
X13429705Y-10824460D02*
X13439229Y-10814936D01*
X13439229Y-10814936D02*
X13448753Y-10795889D01*
X13448753Y-10795889D02*
X13448753Y-10748270D01*
X13448753Y-10748270D02*
X13439229Y-10729222D01*
X13439229Y-10729222D02*
X13429705Y-10719698D01*
X13429705Y-10719698D02*
X13410658Y-10710174D01*
X13410658Y-10710174D02*
X13372562Y-10710174D01*
X13372562Y-10710174D02*
X13353515Y-10719698D01*
X13353515Y-10719698D02*
X13343991Y-10729222D01*
X13343991Y-10729222D02*
X13334467Y-10748270D01*
X13629705Y-10633984D02*
X13534467Y-10633984D01*
X13534467Y-10633984D02*
X13524943Y-10729222D01*
X13524943Y-10729222D02*
X13534467Y-10719698D01*
X13534467Y-10719698D02*
X13553515Y-10710174D01*
X13553515Y-10710174D02*
X13601134Y-10710174D01*
X13601134Y-10710174D02*
X13620182Y-10719698D01*
X13620182Y-10719698D02*
X13629705Y-10729222D01*
X13629705Y-10729222D02*
X13639229Y-10748270D01*
X13639229Y-10748270D02*
X13639229Y-10795889D01*
X13639229Y-10795889D02*
X13629705Y-10814936D01*
X13629705Y-10814936D02*
X13620182Y-10824460D01*
X13620182Y-10824460D02*
X13601134Y-10833984D01*
X13601134Y-10833984D02*
X13553515Y-10833984D01*
X13553515Y-10833984D02*
X13534467Y-10824460D01*
X13534467Y-10824460D02*
X13524943Y-10814936D01*
X13763039Y-10633984D02*
X13782086Y-10633984D01*
X13782086Y-10633984D02*
X13801134Y-10643508D01*
X13801134Y-10643508D02*
X13810658Y-10653031D01*
X13810658Y-10653031D02*
X13820182Y-10672079D01*
X13820182Y-10672079D02*
X13829705Y-10710174D01*
X13829705Y-10710174D02*
X13829705Y-10757793D01*
X13829705Y-10757793D02*
X13820182Y-10795889D01*
X13820182Y-10795889D02*
X13810658Y-10814936D01*
X13810658Y-10814936D02*
X13801134Y-10824460D01*
X13801134Y-10824460D02*
X13782086Y-10833984D01*
X13782086Y-10833984D02*
X13763039Y-10833984D01*
X13763039Y-10833984D02*
X13743991Y-10824460D01*
X13743991Y-10824460D02*
X13734467Y-10814936D01*
X13734467Y-10814936D02*
X13724943Y-10795889D01*
X13724943Y-10795889D02*
X13715420Y-10757793D01*
X13715420Y-10757793D02*
X13715420Y-10710174D01*
X13715420Y-10710174D02*
X13724943Y-10672079D01*
X13724943Y-10672079D02*
X13734467Y-10653031D01*
X13734467Y-10653031D02*
X13743991Y-10643508D01*
X13743991Y-10643508D02*
X13763039Y-10633984D01*
X13915420Y-10833984D02*
X13915420Y-10700650D01*
X13915420Y-10719698D02*
X13924943Y-10710174D01*
X13924943Y-10710174D02*
X13943991Y-10700650D01*
X13943991Y-10700650D02*
X13972563Y-10700650D01*
X13972563Y-10700650D02*
X13991610Y-10710174D01*
X13991610Y-10710174D02*
X14001134Y-10729222D01*
X14001134Y-10729222D02*
X14001134Y-10833984D01*
X14001134Y-10729222D02*
X14010658Y-10710174D01*
X14010658Y-10710174D02*
X14029705Y-10700650D01*
X14029705Y-10700650D02*
X14058277Y-10700650D01*
X14058277Y-10700650D02*
X14077324Y-10710174D01*
X14077324Y-10710174D02*
X14086848Y-10729222D01*
X14086848Y-10729222D02*
X14086848Y-10833984D01*
X14182086Y-10833984D02*
X14182086Y-10700650D01*
X14182086Y-10719698D02*
X14191610Y-10710174D01*
X14191610Y-10710174D02*
X14210658Y-10700650D01*
X14210658Y-10700650D02*
X14239229Y-10700650D01*
X14239229Y-10700650D02*
X14258277Y-10710174D01*
X14258277Y-10710174D02*
X14267801Y-10729222D01*
X14267801Y-10729222D02*
X14267801Y-10833984D01*
X14267801Y-10729222D02*
X14277324Y-10710174D01*
X14277324Y-10710174D02*
X14296372Y-10700650D01*
X14296372Y-10700650D02*
X14324943Y-10700650D01*
X14324943Y-10700650D02*
X14343991Y-10710174D01*
X14343991Y-10710174D02*
X14353515Y-10729222D01*
X14353515Y-10729222D02*
X14353515Y-10833984D01*
X14743991Y-10624460D02*
X14572563Y-10881603D01*
X15001134Y-10633984D02*
X15020182Y-10633984D01*
X15020182Y-10633984D02*
X15039229Y-10643508D01*
X15039229Y-10643508D02*
X15048753Y-10653031D01*
X15048753Y-10653031D02*
X15058277Y-10672079D01*
X15058277Y-10672079D02*
X15067801Y-10710174D01*
X15067801Y-10710174D02*
X15067801Y-10757793D01*
X15067801Y-10757793D02*
X15058277Y-10795889D01*
X15058277Y-10795889D02*
X15048753Y-10814936D01*
X15048753Y-10814936D02*
X15039229Y-10824460D01*
X15039229Y-10824460D02*
X15020182Y-10833984D01*
X15020182Y-10833984D02*
X15001134Y-10833984D01*
X15001134Y-10833984D02*
X14982086Y-10824460D01*
X14982086Y-10824460D02*
X14972563Y-10814936D01*
X14972563Y-10814936D02*
X14963039Y-10795889D01*
X14963039Y-10795889D02*
X14953515Y-10757793D01*
X14953515Y-10757793D02*
X14953515Y-10710174D01*
X14953515Y-10710174D02*
X14963039Y-10672079D01*
X14963039Y-10672079D02*
X14972563Y-10653031D01*
X14972563Y-10653031D02*
X14982086Y-10643508D01*
X14982086Y-10643508D02*
X15001134Y-10633984D01*
X15153515Y-10814936D02*
X15163039Y-10824460D01*
X15163039Y-10824460D02*
X15153515Y-10833984D01*
X15153515Y-10833984D02*
X15143991Y-10824460D01*
X15143991Y-10824460D02*
X15153515Y-10814936D01*
X15153515Y-10814936D02*
X15153515Y-10833984D01*
X15286848Y-10633984D02*
X15305896Y-10633984D01*
X15305896Y-10633984D02*
X15324944Y-10643508D01*
X15324944Y-10643508D02*
X15334467Y-10653031D01*
X15334467Y-10653031D02*
X15343991Y-10672079D01*
X15343991Y-10672079D02*
X15353515Y-10710174D01*
X15353515Y-10710174D02*
X15353515Y-10757793D01*
X15353515Y-10757793D02*
X15343991Y-10795889D01*
X15343991Y-10795889D02*
X15334467Y-10814936D01*
X15334467Y-10814936D02*
X15324944Y-10824460D01*
X15324944Y-10824460D02*
X15305896Y-10833984D01*
X15305896Y-10833984D02*
X15286848Y-10833984D01*
X15286848Y-10833984D02*
X15267801Y-10824460D01*
X15267801Y-10824460D02*
X15258277Y-10814936D01*
X15258277Y-10814936D02*
X15248753Y-10795889D01*
X15248753Y-10795889D02*
X15239229Y-10757793D01*
X15239229Y-10757793D02*
X15239229Y-10710174D01*
X15239229Y-10710174D02*
X15248753Y-10672079D01*
X15248753Y-10672079D02*
X15258277Y-10653031D01*
X15258277Y-10653031D02*
X15267801Y-10643508D01*
X15267801Y-10643508D02*
X15286848Y-10633984D01*
X15429706Y-10653031D02*
X15439229Y-10643508D01*
X15439229Y-10643508D02*
X15458277Y-10633984D01*
X15458277Y-10633984D02*
X15505896Y-10633984D01*
X15505896Y-10633984D02*
X15524944Y-10643508D01*
X15524944Y-10643508D02*
X15534467Y-10653031D01*
X15534467Y-10653031D02*
X15543991Y-10672079D01*
X15543991Y-10672079D02*
X15543991Y-10691127D01*
X15543991Y-10691127D02*
X15534467Y-10719698D01*
X15534467Y-10719698D02*
X15420182Y-10833984D01*
X15420182Y-10833984D02*
X15543991Y-10833984D01*
X15724944Y-10633984D02*
X15629706Y-10633984D01*
X15629706Y-10633984D02*
X15620182Y-10729222D01*
X15620182Y-10729222D02*
X15629706Y-10719698D01*
X15629706Y-10719698D02*
X15648753Y-10710174D01*
X15648753Y-10710174D02*
X15696372Y-10710174D01*
X15696372Y-10710174D02*
X15715420Y-10719698D01*
X15715420Y-10719698D02*
X15724944Y-10729222D01*
X15724944Y-10729222D02*
X15734467Y-10748270D01*
X15734467Y-10748270D02*
X15734467Y-10795889D01*
X15734467Y-10795889D02*
X15724944Y-10814936D01*
X15724944Y-10814936D02*
X15715420Y-10824460D01*
X15715420Y-10824460D02*
X15696372Y-10833984D01*
X15696372Y-10833984D02*
X15648753Y-10833984D01*
X15648753Y-10833984D02*
X15629706Y-10824460D01*
X15629706Y-10824460D02*
X15620182Y-10814936D01*
X15905896Y-10633984D02*
X15867801Y-10633984D01*
X15867801Y-10633984D02*
X15848753Y-10643508D01*
X15848753Y-10643508D02*
X15839229Y-10653031D01*
X15839229Y-10653031D02*
X15820182Y-10681603D01*
X15820182Y-10681603D02*
X15810658Y-10719698D01*
X15810658Y-10719698D02*
X15810658Y-10795889D01*
X15810658Y-10795889D02*
X15820182Y-10814936D01*
X15820182Y-10814936D02*
X15829706Y-10824460D01*
X15829706Y-10824460D02*
X15848753Y-10833984D01*
X15848753Y-10833984D02*
X15886848Y-10833984D01*
X15886848Y-10833984D02*
X15905896Y-10824460D01*
X15905896Y-10824460D02*
X15915420Y-10814936D01*
X15915420Y-10814936D02*
X15924944Y-10795889D01*
X15924944Y-10795889D02*
X15924944Y-10748270D01*
X15924944Y-10748270D02*
X15915420Y-10729222D01*
X15915420Y-10729222D02*
X15905896Y-10719698D01*
X15905896Y-10719698D02*
X15886848Y-10710174D01*
X15886848Y-10710174D02*
X15848753Y-10710174D01*
X15848753Y-10710174D02*
X15829706Y-10719698D01*
X15829706Y-10719698D02*
X15820182Y-10729222D01*
X15820182Y-10729222D02*
X15810658Y-10748270D01*
X16001134Y-10633984D02*
X16001134Y-10672079D01*
X16077325Y-10633984D02*
X16077325Y-10672079D01*
X16372563Y-10910174D02*
X16363039Y-10900650D01*
X16363039Y-10900650D02*
X16343991Y-10872079D01*
X16343991Y-10872079D02*
X16334468Y-10853031D01*
X16334468Y-10853031D02*
X16324944Y-10824460D01*
X16324944Y-10824460D02*
X16315420Y-10776841D01*
X16315420Y-10776841D02*
X16315420Y-10738746D01*
X16315420Y-10738746D02*
X16324944Y-10691127D01*
X16324944Y-10691127D02*
X16334468Y-10662555D01*
X16334468Y-10662555D02*
X16343991Y-10643508D01*
X16343991Y-10643508D02*
X16363039Y-10614936D01*
X16363039Y-10614936D02*
X16372563Y-10605412D01*
X16439229Y-10653031D02*
X16448753Y-10643508D01*
X16448753Y-10643508D02*
X16467801Y-10633984D01*
X16467801Y-10633984D02*
X16515420Y-10633984D01*
X16515420Y-10633984D02*
X16534468Y-10643508D01*
X16534468Y-10643508D02*
X16543991Y-10653031D01*
X16543991Y-10653031D02*
X16553515Y-10672079D01*
X16553515Y-10672079D02*
X16553515Y-10691127D01*
X16553515Y-10691127D02*
X16543991Y-10719698D01*
X16543991Y-10719698D02*
X16429706Y-10833984D01*
X16429706Y-10833984D02*
X16553515Y-10833984D01*
X16791611Y-10833984D02*
X16791611Y-10633984D01*
X16877325Y-10833984D02*
X16877325Y-10729222D01*
X16877325Y-10729222D02*
X16867801Y-10710174D01*
X16867801Y-10710174D02*
X16848753Y-10700650D01*
X16848753Y-10700650D02*
X16820182Y-10700650D01*
X16820182Y-10700650D02*
X16801134Y-10710174D01*
X16801134Y-10710174D02*
X16791611Y-10719698D01*
X17001134Y-10833984D02*
X16982087Y-10824460D01*
X16982087Y-10824460D02*
X16972563Y-10814936D01*
X16972563Y-10814936D02*
X16963039Y-10795889D01*
X16963039Y-10795889D02*
X16963039Y-10738746D01*
X16963039Y-10738746D02*
X16972563Y-10719698D01*
X16972563Y-10719698D02*
X16982087Y-10710174D01*
X16982087Y-10710174D02*
X17001134Y-10700650D01*
X17001134Y-10700650D02*
X17029706Y-10700650D01*
X17029706Y-10700650D02*
X17048753Y-10710174D01*
X17048753Y-10710174D02*
X17058277Y-10719698D01*
X17058277Y-10719698D02*
X17067801Y-10738746D01*
X17067801Y-10738746D02*
X17067801Y-10795889D01*
X17067801Y-10795889D02*
X17058277Y-10814936D01*
X17058277Y-10814936D02*
X17048753Y-10824460D01*
X17048753Y-10824460D02*
X17029706Y-10833984D01*
X17029706Y-10833984D02*
X17001134Y-10833984D01*
X17182087Y-10833984D02*
X17163039Y-10824460D01*
X17163039Y-10824460D02*
X17153515Y-10805412D01*
X17153515Y-10805412D02*
X17153515Y-10633984D01*
X17334468Y-10824460D02*
X17315420Y-10833984D01*
X17315420Y-10833984D02*
X17277325Y-10833984D01*
X17277325Y-10833984D02*
X17258277Y-10824460D01*
X17258277Y-10824460D02*
X17248753Y-10805412D01*
X17248753Y-10805412D02*
X17248753Y-10729222D01*
X17248753Y-10729222D02*
X17258277Y-10710174D01*
X17258277Y-10710174D02*
X17277325Y-10700650D01*
X17277325Y-10700650D02*
X17315420Y-10700650D01*
X17315420Y-10700650D02*
X17334468Y-10710174D01*
X17334468Y-10710174D02*
X17343992Y-10729222D01*
X17343992Y-10729222D02*
X17343992Y-10748270D01*
X17343992Y-10748270D02*
X17248753Y-10767317D01*
X17420182Y-10824460D02*
X17439230Y-10833984D01*
X17439230Y-10833984D02*
X17477325Y-10833984D01*
X17477325Y-10833984D02*
X17496373Y-10824460D01*
X17496373Y-10824460D02*
X17505896Y-10805412D01*
X17505896Y-10805412D02*
X17505896Y-10795889D01*
X17505896Y-10795889D02*
X17496373Y-10776841D01*
X17496373Y-10776841D02*
X17477325Y-10767317D01*
X17477325Y-10767317D02*
X17448753Y-10767317D01*
X17448753Y-10767317D02*
X17429706Y-10757793D01*
X17429706Y-10757793D02*
X17420182Y-10738746D01*
X17420182Y-10738746D02*
X17420182Y-10729222D01*
X17420182Y-10729222D02*
X17429706Y-10710174D01*
X17429706Y-10710174D02*
X17448753Y-10700650D01*
X17448753Y-10700650D02*
X17477325Y-10700650D01*
X17477325Y-10700650D02*
X17496373Y-10710174D01*
X17572563Y-10910174D02*
X17582087Y-10900650D01*
X17582087Y-10900650D02*
X17601134Y-10872079D01*
X17601134Y-10872079D02*
X17610658Y-10853031D01*
X17610658Y-10853031D02*
X17620182Y-10824460D01*
X17620182Y-10824460D02*
X17629706Y-10776841D01*
X17629706Y-10776841D02*
X17629706Y-10738746D01*
X17629706Y-10738746D02*
X17620182Y-10691127D01*
X17620182Y-10691127D02*
X17610658Y-10662555D01*
X17610658Y-10662555D02*
X17601134Y-10643508D01*
X17601134Y-10643508D02*
X17582087Y-10614936D01*
X17582087Y-10614936D02*
X17572563Y-10605412D01*
X17934468Y-10910174D02*
X17924944Y-10900650D01*
X17924944Y-10900650D02*
X17905896Y-10872079D01*
X17905896Y-10872079D02*
X17896373Y-10853031D01*
X17896373Y-10853031D02*
X17886849Y-10824460D01*
X17886849Y-10824460D02*
X17877325Y-10776841D01*
X17877325Y-10776841D02*
X17877325Y-10738746D01*
X17877325Y-10738746D02*
X17886849Y-10691127D01*
X17886849Y-10691127D02*
X17896373Y-10662555D01*
X17896373Y-10662555D02*
X17905896Y-10643508D01*
X17905896Y-10643508D02*
X17924944Y-10614936D01*
X17924944Y-10614936D02*
X17934468Y-10605412D01*
X18010658Y-10700650D02*
X18010658Y-10833984D01*
X18010658Y-10719698D02*
X18020182Y-10710174D01*
X18020182Y-10710174D02*
X18039230Y-10700650D01*
X18039230Y-10700650D02*
X18067801Y-10700650D01*
X18067801Y-10700650D02*
X18086849Y-10710174D01*
X18086849Y-10710174D02*
X18096373Y-10729222D01*
X18096373Y-10729222D02*
X18096373Y-10833984D01*
X18220182Y-10833984D02*
X18201134Y-10824460D01*
X18201134Y-10824460D02*
X18191611Y-10814936D01*
X18191611Y-10814936D02*
X18182087Y-10795889D01*
X18182087Y-10795889D02*
X18182087Y-10738746D01*
X18182087Y-10738746D02*
X18191611Y-10719698D01*
X18191611Y-10719698D02*
X18201134Y-10710174D01*
X18201134Y-10710174D02*
X18220182Y-10700650D01*
X18220182Y-10700650D02*
X18248754Y-10700650D01*
X18248754Y-10700650D02*
X18267801Y-10710174D01*
X18267801Y-10710174D02*
X18277325Y-10719698D01*
X18277325Y-10719698D02*
X18286849Y-10738746D01*
X18286849Y-10738746D02*
X18286849Y-10795889D01*
X18286849Y-10795889D02*
X18277325Y-10814936D01*
X18277325Y-10814936D02*
X18267801Y-10824460D01*
X18267801Y-10824460D02*
X18248754Y-10833984D01*
X18248754Y-10833984D02*
X18220182Y-10833984D01*
X18343992Y-10700650D02*
X18420182Y-10700650D01*
X18372563Y-10633984D02*
X18372563Y-10805412D01*
X18372563Y-10805412D02*
X18382087Y-10824460D01*
X18382087Y-10824460D02*
X18401134Y-10833984D01*
X18401134Y-10833984D02*
X18420182Y-10833984D01*
X18639230Y-10700650D02*
X18639230Y-10900650D01*
X18639230Y-10710174D02*
X18658277Y-10700650D01*
X18658277Y-10700650D02*
X18696373Y-10700650D01*
X18696373Y-10700650D02*
X18715420Y-10710174D01*
X18715420Y-10710174D02*
X18724944Y-10719698D01*
X18724944Y-10719698D02*
X18734468Y-10738746D01*
X18734468Y-10738746D02*
X18734468Y-10795889D01*
X18734468Y-10795889D02*
X18724944Y-10814936D01*
X18724944Y-10814936D02*
X18715420Y-10824460D01*
X18715420Y-10824460D02*
X18696373Y-10833984D01*
X18696373Y-10833984D02*
X18658277Y-10833984D01*
X18658277Y-10833984D02*
X18639230Y-10824460D01*
X18848754Y-10833984D02*
X18829706Y-10824460D01*
X18829706Y-10824460D02*
X18820182Y-10805412D01*
X18820182Y-10805412D02*
X18820182Y-10633984D01*
X19010658Y-10833984D02*
X19010658Y-10729222D01*
X19010658Y-10729222D02*
X19001135Y-10710174D01*
X19001135Y-10710174D02*
X18982087Y-10700650D01*
X18982087Y-10700650D02*
X18943992Y-10700650D01*
X18943992Y-10700650D02*
X18924944Y-10710174D01*
X19010658Y-10824460D02*
X18991611Y-10833984D01*
X18991611Y-10833984D02*
X18943992Y-10833984D01*
X18943992Y-10833984D02*
X18924944Y-10824460D01*
X18924944Y-10824460D02*
X18915420Y-10805412D01*
X18915420Y-10805412D02*
X18915420Y-10786365D01*
X18915420Y-10786365D02*
X18924944Y-10767317D01*
X18924944Y-10767317D02*
X18943992Y-10757793D01*
X18943992Y-10757793D02*
X18991611Y-10757793D01*
X18991611Y-10757793D02*
X19010658Y-10748270D01*
X19077325Y-10700650D02*
X19153515Y-10700650D01*
X19105896Y-10633984D02*
X19105896Y-10805412D01*
X19105896Y-10805412D02*
X19115420Y-10824460D01*
X19115420Y-10824460D02*
X19134468Y-10833984D01*
X19134468Y-10833984D02*
X19153515Y-10833984D01*
X19296373Y-10824460D02*
X19277325Y-10833984D01*
X19277325Y-10833984D02*
X19239230Y-10833984D01*
X19239230Y-10833984D02*
X19220182Y-10824460D01*
X19220182Y-10824460D02*
X19210658Y-10805412D01*
X19210658Y-10805412D02*
X19210658Y-10729222D01*
X19210658Y-10729222D02*
X19220182Y-10710174D01*
X19220182Y-10710174D02*
X19239230Y-10700650D01*
X19239230Y-10700650D02*
X19277325Y-10700650D01*
X19277325Y-10700650D02*
X19296373Y-10710174D01*
X19296373Y-10710174D02*
X19305896Y-10729222D01*
X19305896Y-10729222D02*
X19305896Y-10748270D01*
X19305896Y-10748270D02*
X19210658Y-10767317D01*
X19477325Y-10833984D02*
X19477325Y-10633984D01*
X19477325Y-10824460D02*
X19458277Y-10833984D01*
X19458277Y-10833984D02*
X19420182Y-10833984D01*
X19420182Y-10833984D02*
X19401135Y-10824460D01*
X19401135Y-10824460D02*
X19391611Y-10814936D01*
X19391611Y-10814936D02*
X19382087Y-10795889D01*
X19382087Y-10795889D02*
X19382087Y-10738746D01*
X19382087Y-10738746D02*
X19391611Y-10719698D01*
X19391611Y-10719698D02*
X19401135Y-10710174D01*
X19401135Y-10710174D02*
X19420182Y-10700650D01*
X19420182Y-10700650D02*
X19458277Y-10700650D01*
X19458277Y-10700650D02*
X19477325Y-10710174D01*
X19553516Y-10910174D02*
X19563039Y-10900650D01*
X19563039Y-10900650D02*
X19582087Y-10872079D01*
X19582087Y-10872079D02*
X19591611Y-10853031D01*
X19591611Y-10853031D02*
X19601135Y-10824460D01*
X19601135Y-10824460D02*
X19610658Y-10776841D01*
X19610658Y-10776841D02*
X19610658Y-10738746D01*
X19610658Y-10738746D02*
X19601135Y-10691127D01*
X19601135Y-10691127D02*
X19591611Y-10662555D01*
X19591611Y-10662555D02*
X19582087Y-10643508D01*
X19582087Y-10643508D02*
X19563039Y-10614936D01*
X19563039Y-10614936D02*
X19553516Y-10605412D01*
M02*
